<svg width="49" height="57" viewBox="0 0 49 57" fill="none" xmlns="http://www.w3.org/2000/svg">
<path d="M11.1539 18.4456L11.4991 18.8074L11.1539 18.4456ZM1.42891 1.24147C1.28698 1.00459 0.979898 0.927613 0.74302 1.06954C0.506141 1.21147 0.429167 1.51855 0.571093 1.75543L1.42891 1.24147ZM12.9797 14.2088C13.1173 14.4482 13.4229 14.5307 13.6623 14.3931C13.9017 14.2555 13.9843 13.9499 13.8467 13.7105L12.9797 14.2088ZM6.39878 0.750862C6.26118 0.511441 5.95555 0.428896 5.71613 0.566491C5.47671 0.704086 5.39416 1.00972 5.53176 1.24914L6.39878 0.750862ZM15.833 0.751192C15.6956 0.511667 15.39 0.428888 15.1505 0.566301C14.9109 0.703714 14.8282 1.00928 14.9656 1.24881L15.833 0.751192ZM22.2622 12.9627L21.8285 13.2115V13.2115L22.2622 12.9627ZM20.7982 0.751192C20.6608 0.511667 20.3553 0.428888 20.1157 0.566301C19.8762 0.703714 19.7934 1.00928 19.9308 1.24881L20.7982 0.751192ZM24.8333 8.78948L24.3996 9.03829L24.8333 8.78948ZM29.7357 1.24881C29.8731 1.00928 29.7904 0.703714 29.5508 0.566301C29.3113 0.428888 29.0057 0.511667 28.8683 0.751192L29.7357 1.24881ZM43.6379 1.24987C43.7759 1.01069 43.6938 0.704915 43.4546 0.566914C43.2155 0.428913 42.9097 0.51094 42.7717 0.750127L43.6379 1.24987ZM48.1074 1.24843C48.2446 1.00879 48.1616 0.703293 47.9219 0.566087C47.6823 0.428881 47.3768 0.511922 47.2396 0.751566L48.1074 1.24843ZM28.5669 9.04529C28.3304 8.90281 28.0231 8.97907 27.8807 9.21562C27.7382 9.45216 27.8144 9.75942 28.051 9.9019L28.5669 9.04529ZM30.5336 11.3972C30.7702 11.5397 31.0774 11.4635 31.2199 11.2269C31.3624 10.9904 31.2861 10.6831 31.0496 10.5406L30.5336 11.3972ZM32.5197 7.90811C32.7563 8.05059 33.0635 7.97433 33.206 7.73778C33.3485 7.50124 33.2722 7.19398 33.0357 7.0515L32.5197 7.90811ZM30.5531 5.55616C30.3165 5.41368 30.0092 5.48994 29.8668 5.72649C29.7243 5.96304 29.8005 6.2703 30.0371 6.41277L30.5531 5.55616ZM35.036 3.9391C35.2828 4.06298 35.5833 3.96333 35.7072 3.71653C35.8311 3.46973 35.7314 3.16924 35.4846 3.04537L35.036 3.9391ZM32.5055 1.55003C32.2587 1.42615 31.9582 1.5258 31.8343 1.7726C31.7104 2.01939 31.8101 2.31988 32.0569 2.44376L32.5055 1.55003ZM44.1943 32.9006C44.1943 43.6376 35.5243 52.3385 24.8333 52.3385V53.3385C36.0802 53.3385 45.1943 44.1863 45.1943 32.9006H44.1943ZM24.8333 52.3385C14.1423 52.3385 5.47221 43.6376 5.47221 32.9006H4.47221C4.47221 44.1863 13.5864 53.3385 24.8333 53.3385V52.3385ZM5.47221 32.9006C5.47221 27.353 7.78631 22.3493 11.4991 18.8074L10.8088 18.0839C6.906 21.807 4.47221 27.0691 4.47221 32.9006H5.47221ZM11.5828 18.1887L1.42891 1.24147L0.571093 1.75543L10.725 18.7026L11.5828 18.1887ZM13.8467 13.7105L6.39878 0.750862L5.53176 1.24914L12.9797 14.2088L13.8467 13.7105ZM11.4991 18.8074C14.4212 16.0198 18.2079 14.1395 22.4128 13.6131L22.2885 12.6208C17.8637 13.1747 13.8804 15.1536 10.8088 18.0839L11.4991 18.8074ZM22.4128 13.6131C23.2055 13.5139 24.0133 13.4627 24.8333 13.4627V12.4627C23.9717 12.4627 23.1224 12.5165 22.2885 12.6208L22.4128 13.6131ZM22.7843 12.8682L22.6959 12.7139L21.8285 13.2115L21.917 13.3658L22.7843 12.8682ZM22.6959 12.7139L15.833 0.751192L14.9656 1.24881L21.8285 13.2115L22.6959 12.7139ZM24.8333 13.4627C25.6532 13.4627 26.4611 13.5139 27.2538 13.6131L27.378 12.6208C26.5442 12.5165 25.6949 12.4627 24.8333 12.4627V13.4627ZM27.7496 12.8682L25.267 8.54067L24.3996 9.03829L26.8822 13.3658L27.7496 12.8682ZM25.267 8.54067L20.7982 0.751192L19.9308 1.24881L24.3996 9.03829L25.267 8.54067ZM25.267 9.03829L29.7357 1.24881L28.8683 0.751192L24.3996 8.54067L25.267 9.03829ZM27.2538 13.6131C29.8717 13.9408 32.3271 14.7932 34.5127 16.0624L35.0149 15.1977C32.7158 13.8626 30.1323 12.9656 27.378 12.6208L27.2538 13.6131ZM35.1969 15.8799L43.6379 1.24987L42.7717 0.750127L34.3307 15.3802L35.1969 15.8799ZM34.5127 16.0624C35.6301 16.7113 36.6769 17.4691 37.6389 18.3214L38.3021 17.573C37.2908 16.6769 36.19 15.8801 35.0149 15.1977L34.5127 16.0624ZM37.6389 18.3214C41.6593 21.8836 44.1943 27.0944 44.1943 32.9006H45.1943C45.1943 26.797 42.5282 21.3174 38.3021 17.573L37.6389 18.3214ZM38.4044 18.1956L48.1074 1.24843L47.2396 0.751566L37.5366 17.6988L38.4044 18.1956ZM28.051 9.9019L30.5336 11.3972L31.0496 10.5406L28.5669 9.04529L28.051 9.9019ZM33.0357 7.0515L30.5531 5.55616L30.0371 6.41277L32.5197 7.90811L33.0357 7.0515ZM35.4846 3.04537L32.5055 1.55003L32.0569 2.44376L35.036 3.9391L35.4846 3.04537Z" fill="black"/>
<path d="M8.10512 32.5098C8.09191 32.7857 8.30481 33.02 8.58064 33.0332C8.85646 33.0464 9.09077 32.8335 9.10398 32.5577L8.10512 32.5098ZM26.2537 16.9128C26.5295 16.926 26.7639 16.7131 26.7771 16.4372C26.7903 16.1614 26.5774 15.9271 26.3015 15.9139L26.2537 16.9128ZM9.10398 32.5577C9.53848 23.4827 17.2184 16.4801 26.2537 16.9128L26.3015 15.9139C16.7109 15.4547 8.56586 22.8869 8.10512 32.5098L9.10398 32.5577Z" fill="black"/>
<path d="M38.5558 22.6952C38.3883 22.4756 38.075 22.4341 37.8561 22.6025C37.6372 22.7708 37.5956 23.0852 37.7631 23.3048L38.5558 22.6952ZM12.3964 42.8119C12.2288 42.5924 11.9156 42.5509 11.6967 42.7192C11.4778 42.8875 11.4361 43.202 11.6036 43.4215L12.3964 42.8119ZM37.7631 23.3048C43.1295 30.3373 41.8005 40.4047 34.796 45.7911L35.4027 46.5861C42.8457 40.8624 44.2567 30.166 38.5558 22.6952L37.7631 23.3048ZM34.796 45.7911C27.7916 51.1776 17.7628 49.8444 12.3964 42.8119L11.6036 43.4215C17.3046 50.8923 27.9597 52.3098 35.4027 46.5861L34.796 45.7911Z" fill="black"/>
<path d="M25.5837 38.9379C25.4237 38.9379 25.2837 38.8829 25.1637 38.7729C25.0537 38.6629 24.9987 38.5229 24.9987 38.3529V28.6029L23.4987 29.1279C23.3887 29.1779 23.2887 29.2029 23.1987 29.2029C23.0287 29.2029 22.8887 29.1479 22.7787 29.0379C22.6687 28.9279 22.6137 28.7929 22.6137 28.6329C22.6137 28.5129 22.6387 28.4029 22.6887 28.3029C22.7487 28.2029 22.8487 28.1279 22.9887 28.0779L25.2987 27.2829C25.3487 27.2629 25.3987 27.2479 25.4487 27.2379C25.5087 27.2179 25.5587 27.2079 25.5987 27.2079C25.7687 27.2079 25.9037 27.2679 26.0037 27.3879C26.1137 27.4979 26.1687 27.6329 26.1687 27.7929V38.3529C26.1687 38.5229 26.1137 38.6629 26.0037 38.7729C25.8937 38.8829 25.7537 38.9379 25.5837 38.9379Z" fill="black"/>
</svg>
