<svg width="52" height="56" viewBox="0 0 52 56" fill="none" xmlns="http://www.w3.org/2000/svg">
<path d="M45.5643 20.8108V22.0569C45.5643 23.558 46.7812 24.7748 48.2822 24.7748V24.7748C49.7832 24.7748 51 25.9916 51 27.4926V28.7387M45.5643 20.8108H33.7047M45.5643 20.8108H46.0468C46.5991 20.8108 47.0468 20.3631 47.0468 19.8108V16.3604C47.0468 15.8081 46.5991 15.3604 46.0468 15.3604H33.2223C32.67 15.3604 32.2223 15.8081 32.2223 16.3604V19.8108C32.2223 20.3631 32.67 20.8108 33.2223 20.8108H33.7047M33.7047 20.8108V22.0569C33.7047 23.558 32.4879 24.7748 30.9869 24.7748V24.7748C29.4859 24.7748 28.269 25.9916 28.269 27.4926V29.2342M28.269 29.2342L51 28.7387M28.269 29.2342V47.0721M51 28.7387V47.0721M51 47.0721V50.018C51 51.6749 49.6569 53.018 48 53.018H31.269C29.6122 53.018 28.269 51.6749 28.269 50.018V47.0721M51 47.0721H28.269" stroke="black"/>
<mask id="path-2-inside-1_178_1423" fill="white">
<path d="M33.7046 40.1351C32.7163 38.1531 32.2222 34.6846 32.2222 32.2072C34.6929 32.7026 38.3218 34.3595 40.1286 36.1711C41.611 37.6576 41.9075 41.1261 40.1286 42.6126C37.4644 44.8387 34.6929 42.1171 33.7046 40.1351Z"/>
</mask>
<path d="M37.5437 38.8192C37.3643 38.6093 37.0487 38.5846 36.8388 38.764C36.6289 38.9435 36.6042 39.2591 36.7836 39.469L37.5437 38.8192ZM40.5087 42.2877L37.5437 38.8192L36.7836 39.469L39.7485 42.9374L40.5087 42.2877ZM32.2222 32.2072L32.4188 31.2267L31.2222 30.9867V32.2072H32.2222ZM33.7046 40.1351L34.5995 39.6888L33.7046 40.1351ZM40.1286 42.6126L40.7698 43.3799L40.1286 42.6126ZM40.1286 36.1711L40.8367 35.465L40.1286 36.1711ZM31.2222 32.2072C31.2222 34.7477 31.7205 38.397 32.8097 40.5813L34.5995 39.6888C33.7121 37.9092 33.2222 34.6216 33.2222 32.2072H31.2222ZM32.8097 40.5813C33.3689 41.7027 34.4315 43.0509 35.796 43.8224C36.491 44.2153 37.3019 44.4789 38.1813 44.4425C39.0733 44.4055 39.9526 44.0627 40.7698 43.3799L39.4874 41.8452C38.9725 42.2755 38.5062 42.4273 38.0985 42.4442C37.678 42.4616 37.2348 42.3383 36.7803 42.0814C35.8459 41.5531 35.0287 40.5494 34.5995 39.6888L32.8097 40.5813ZM40.7698 43.3799C41.9773 42.3709 42.3936 40.7806 42.3512 39.3619C42.3087 37.9436 41.8041 36.4351 40.8367 35.465L39.4205 36.8773C39.9355 37.3936 40.3204 38.3626 40.3521 39.4217C40.3837 40.4806 40.0588 41.3677 39.4874 41.8452L40.7698 43.3799ZM40.8367 35.465C39.8235 34.4491 38.3552 33.524 36.8624 32.7966C35.3623 32.0656 33.7557 31.4948 32.4188 31.2267L32.0255 33.1876C33.1594 33.415 34.6027 33.9203 35.9864 34.5945C37.3774 35.2724 38.6269 36.0815 39.4205 36.8773L40.8367 35.465Z" fill="black" mask="url(#path-2-inside-1_178_1423)"/>
<path d="M47.047 32.2072L47.5456 32.1689L47.5037 31.6235L46.9642 31.7141L47.047 32.2072ZM42.5997 40.6261C42.3235 40.6261 42.0997 40.8499 42.0997 41.1261C42.0997 41.4022 42.3235 41.6261 42.5997 41.6261V40.6261ZM42.1055 33.6936L41.8537 33.2617L42.1055 33.6936ZM43.9086 37.5458C44.1205 37.3687 44.1487 37.0534 43.9717 36.8415C43.7946 36.6296 43.4793 36.6014 43.2674 36.7784L43.9086 37.5458ZM46.5485 32.2454C46.7099 34.35 46.5423 36.5585 45.6113 38.4255L46.5062 38.8717C47.5518 36.7748 47.7136 34.3586 47.5456 32.1689L46.5485 32.2454ZM45.6113 38.4255C44.7119 40.2291 43.4083 40.6261 42.5997 40.6261V41.6261C43.7677 41.6261 45.429 41.032 46.5062 38.8717L45.6113 38.4255ZM39.6348 36.1711C40.0483 36.4522 40.0483 36.4522 40.0482 36.4523C40.0482 36.4523 40.0482 36.4523 40.0482 36.4524C40.0481 36.4524 40.0481 36.4524 40.0482 36.4524C40.0482 36.4523 40.0483 36.4522 40.0484 36.452C40.0488 36.4515 40.0494 36.4506 40.0503 36.4493C40.052 36.4467 40.0549 36.4426 40.0588 36.4369C40.0667 36.4256 40.0788 36.4083 40.0949 36.3857C40.1271 36.3403 40.1753 36.2737 40.2374 36.191C40.3618 36.0253 40.5411 35.7963 40.7592 35.5448C41.203 35.0331 41.7776 34.4635 42.3573 34.1256L41.8537 33.2617C41.1304 33.6833 40.4696 34.3524 40.0038 34.8896C39.7671 35.1625 39.573 35.4105 39.4377 35.5906C39.37 35.6808 39.3168 35.7544 39.2801 35.806C39.2617 35.8318 39.2475 35.8521 39.2376 35.8664C39.2326 35.8735 39.2288 35.8791 39.226 35.883C39.2247 35.885 39.2236 35.8866 39.2228 35.8878C39.2224 35.8884 39.2221 35.8889 39.2218 35.8892C39.2217 35.8894 39.2216 35.8896 39.2215 35.8897C39.2214 35.8898 39.2214 35.8899 39.2213 35.8899C39.2213 35.89 39.2212 35.8901 39.6348 36.1711ZM42.3573 34.1256C43.0808 33.7039 44.2534 33.3459 45.2897 33.0899C45.7991 32.964 46.2606 32.8663 46.5947 32.8002C46.7616 32.7671 46.8963 32.742 46.9889 32.7252C47.0352 32.7168 47.0709 32.7105 47.0948 32.7063C47.1068 32.7042 47.1158 32.7027 47.1216 32.7016C47.1246 32.7011 47.1268 32.7008 47.1281 32.7005C47.1288 32.7004 47.1293 32.7003 47.1296 32.7003C47.1297 32.7003 47.1298 32.7003 47.1299 32.7002C47.1299 32.7002 47.1299 32.7002 47.1299 32.7002C47.1299 32.7002 47.1298 32.7003 47.047 32.2072C46.9642 31.7141 46.9642 31.7141 46.9641 31.7141C46.9641 31.7141 46.964 31.7141 46.9639 31.7141C46.9637 31.7141 46.9635 31.7142 46.9633 31.7142C46.9627 31.7143 46.962 31.7144 46.9611 31.7146C46.9592 31.7149 46.9565 31.7154 46.9531 31.716C46.9461 31.7171 46.9361 31.7189 46.9231 31.7211C46.897 31.7257 46.859 31.7324 46.8104 31.7412C46.7131 31.7589 46.573 31.785 46.4003 31.8192C46.0552 31.8876 45.578 31.9886 45.0499 32.119C44.0111 32.3757 42.713 32.7608 41.8537 33.2617L42.3573 34.1256ZM40.9437 40.0233L43.9086 37.5458L43.2674 36.7784L40.3025 39.2559L40.9437 40.0233Z" fill="black"/>
<path d="M20.3627 13.3784L20.7167 13.0253L20.3627 13.3784ZM27.9151 13.236C28.1101 13.4315 28.4267 13.4319 28.6222 13.2369C28.8177 13.0419 28.8181 12.7253 28.6231 12.5298L27.9151 13.236ZM7.76653 32.9457L7.4125 32.5927L7.76653 32.9457ZM4.29807 29.4867L3.94404 29.1336L4.29807 29.4867ZM28.928 3.7988L28.5739 3.44573L28.928 3.7988ZM34.1326 1.41999L33.7786 1.77306L34.1326 1.41999ZM35.7554 5.87175L36.1094 6.22482L35.7554 5.87175ZM35.7554 3.04717L35.4013 3.40024L35.7554 3.04717ZM32.7165 8.91892L32.3624 8.56585L32.7165 8.91892ZM32.7165 11.8919L32.3624 11.5388L32.7165 11.8919ZM27.2145 17.4088L26.8605 17.0558L27.2145 17.4088ZM24.3822 17.4088L24.0282 17.7619L24.3822 17.4088ZM19.3004 9.48861L19.6544 9.84168L19.3004 9.48861ZM27.5685 17.7619L33.0705 12.245L32.3624 11.5388L26.8605 17.0558L27.5685 17.7619ZM33.0705 9.27199L36.1094 6.22482L35.4013 5.51868L32.3624 8.56585L33.0705 9.27199ZM36.1094 2.6941L34.4866 1.06691L33.7786 1.77306L35.4013 3.40024L36.1094 2.6941ZM30.9463 1.06691L28.5739 3.44573L29.282 4.15187L31.6544 1.77306L30.9463 1.06691ZM18.9464 12.6663L20.0087 13.7315L20.7167 13.0253L19.6544 11.9601L18.9464 12.6663ZM20.0087 13.7315L23.4677 17.1999L24.1758 16.4938L20.7167 13.0253L20.0087 13.7315ZM23.4677 17.1999L24.0282 17.7619L24.7363 17.0558L24.1758 16.4938L23.4677 17.1999ZM20.0087 13.0253L12.3184 20.7365L13.0265 21.4426L20.7167 13.7315L20.0087 13.0253ZM12.3184 20.7365L3.94404 29.1336L4.65211 29.8398L13.0265 21.4426L12.3184 20.7365ZM8.12056 33.2988L16.4856 24.9111L15.7775 24.2049L7.4125 32.5927L8.12056 33.2988ZM16.4856 24.9111L24.1758 17.1999L23.4677 16.4938L15.7775 24.2049L16.4856 24.9111ZM12.3184 21.4426L15.7775 24.9111L16.4856 24.2049L13.0265 20.7365L12.3184 21.4426ZM24.6207 3.44573L21.7382 6.33612L22.4463 7.04226L25.3288 4.15187L24.6207 3.44573ZM21.7382 6.33612L18.9464 9.13554L19.6544 9.84168L22.4463 7.04226L21.7382 6.33612ZM21.7382 7.04226L27.9151 13.236L28.6231 12.5298L22.4463 6.33612L21.7382 7.04226ZM3.94404 33.2988C5.09644 34.4543 6.96817 34.4543 8.12056 33.2988L7.4125 32.5927C6.65084 33.3564 5.41376 33.3564 4.65211 32.5927L3.94404 33.2988ZM4.65211 32.5927C3.89337 31.8319 3.89337 30.6006 4.65211 29.8398L3.94404 29.1336C2.79606 30.2847 2.79606 32.1477 3.94404 33.2988L4.65211 32.5927ZM27.9643 3.44573C27.0417 2.52066 25.5433 2.52066 24.6207 3.44573L25.3288 4.15187C25.8606 3.61861 26.7244 3.61861 27.2562 4.15187L27.9643 3.44573ZM28.5739 3.44573C28.4057 3.61441 28.1325 3.61441 27.9643 3.44573L27.2562 4.15187C27.8152 4.71236 28.723 4.71236 29.282 4.15187L28.5739 3.44573ZM34.4866 1.06691C33.5098 0.0873977 31.9232 0.0873981 30.9463 1.06691L31.6544 1.77306C32.2405 1.18535 33.1925 1.18535 33.7786 1.77306L34.4866 1.06691ZM36.1094 6.22482C37.0825 5.24907 37.0825 3.66985 36.1094 2.6941L35.4013 3.40024C35.9852 3.9857 35.9852 4.93322 35.4013 5.51868L36.1094 6.22482ZM33.0705 9.55684C32.992 9.47812 32.992 9.35071 33.0705 9.27199L32.3624 8.56585C31.8947 9.03487 31.8947 9.79396 32.3624 10.263L33.0705 9.55684ZM33.0705 12.245C33.8114 11.5021 33.8114 10.2997 33.0705 9.55684L32.3624 10.263C32.7141 10.6156 32.7141 11.1862 32.3624 11.5388L33.0705 12.245ZM26.8605 17.0558C26.2743 17.6435 25.3224 17.6435 24.7363 17.0558L24.0282 17.7619C25.005 18.7414 26.5917 18.7414 27.5685 17.7619L26.8605 17.0558ZM19.6544 11.9601C19.0706 11.3747 19.0706 10.4271 19.6544 9.84168L18.9464 9.13554C17.9732 10.1113 17.9732 11.6905 18.9464 12.6663L19.6544 11.9601Z" fill="black"/>
<path d="M1.09072 49.0541C1.58457 46.0811 4.95321 41.1262 6.52594 38.6487C6.52594 38.6487 10.8091 46.4114 11.4679 49.0541C12.1267 51.6967 11.4681 55 6.52594 55C2.07924 55 0.596862 52.0271 1.09072 49.0541Z" stroke="black"/>
<path d="M4.51941 47.7529C4.62173 47.4964 4.49675 47.2055 4.24026 47.1032C3.98377 47.0009 3.69291 47.1259 3.59059 47.3824L4.51941 47.7529ZM6.03172 52.5271C6.30786 52.5271 6.53172 52.3032 6.53172 52.0271C6.53172 51.7509 6.30786 51.5271 6.03172 51.5271V52.5271ZM3.59059 47.3824C3.29625 48.1202 2.62587 49.3108 3.0863 50.6981L4.0354 50.3831C3.71884 49.4293 4.15488 48.6667 4.51941 47.7529L3.59059 47.3824ZM3.0863 50.6981C3.34357 51.4733 3.98442 51.9269 4.55398 52.1798C5.12445 52.4331 5.71408 52.5271 6.03172 52.5271V51.5271C5.85575 51.5271 5.4042 51.4631 4.95976 51.2658C4.51441 51.0681 4.16663 50.7785 4.0354 50.3831L3.0863 50.6981Z" fill="black"/>
</svg>
