<svg width="261" height="1182" viewBox="0 0 261 1182" fill="none" xmlns="http://www.w3.org/2000/svg">
<path fill-rule="evenodd" clip-rule="evenodd" d="M0.707107 994.286L192.446 802.547L193.153 801.84L192.446 801.133L91.965 700.651L91.2578 699.945L91.2414 699.961L90.5342 699.254L73.1617 681.881L72.4546 681.174L72.4709 681.158L72.4548 681.142L73.1617 680.434L90.5345 663.062L91.2416 662.355L91.2578 662.371L91.9649 661.664L191.876 561.753L192.583 561.046L191.876 560.339L73.1619 441.624L72.4548 440.917L73.0083 440.364L72.4875 439.843L73.1946 439.136L191.339 320.992L192.046 320.284L191.339 319.577L72.0549 200.293L71.3478 199.586L72.0549 198.879L89.4271 181.506L90.1346 180.799L90.1507 180.815L90.8582 180.109L449.259 -178.293L449.966 -179L450.673 -178.293L468.046 -160.92L468.753 -160.213L468.046 -159.506L282.266 26.2738L281.559 26.981L282.266 27.6881L330.609 76.0316L331.316 76.7388L331.274 76.7809L331.349 76.8556L330.642 77.5629L280.071 128.134L279.364 128.841L280.071 129.548L330.72 180.197L331.427 180.904L332.134 180.197L451.506 60.8246L452.213 60.1174L452.92 60.8246L470.293 78.197L471 78.9042L470.293 79.6113L350.921 198.984L350.214 199.691L350.921 200.398L451.369 300.846L452.076 301.553L452.105 301.524L452.812 302.231L470.185 319.603L470.892 320.311L470.185 321.018L350.976 440.226L350.269 440.933L350.976 441.641L469.861 560.525L470.568 561.232L470.541 561.259L470.925 561.642L470.217 562.349L351.546 681.021L350.839 681.728L351.546 682.435L470.185 801.073L470.892 801.781L470.849 801.823L470.892 801.866L470.185 802.573L351.529 921.228L350.822 921.935L351.529 922.642L468.619 1039.73L469.326 1040.44L468.619 1041.15L451.247 1058.52L450.539 1059.23L449.832 1058.52L332.743 941.429L332.035 940.722L331.328 941.429L238.02 1034.74H236.606L331.328 940.015L332.035 939.308L332.743 940.015L450.539 1057.81L467.912 1040.44L350.115 922.642L349.408 921.935L350.115 921.228L469.478 801.866L469.435 801.823L469.477 801.78L350.132 682.435L349.425 681.728L350.132 681.021L469.51 561.642L469.127 561.258L469.153 561.232L349.562 441.641L348.855 440.933L349.562 440.226L469.478 320.311L452.105 302.938L452.076 302.967L451.369 302.26L349.506 200.398L348.799 199.691L349.506 198.984L469.586 78.9042L452.213 61.5317L332.134 181.611L331.427 182.318L330.72 181.611L278.657 129.548L277.95 128.841L278.657 128.134L329.935 76.8557L329.86 76.781L329.902 76.7388L280.852 27.6881L280.145 26.981L280.852 26.2738L467.339 -160.213L449.966 -177.586L90.8578 181.523L90.1504 182.23L90.1342 182.214L72.762 199.586L192.753 319.577L193.46 320.284L192.753 320.992L73.9017 439.843L74.4225 440.364L73.869 440.917L193.29 560.339L193.997 561.046L193.29 561.753L91.9649 663.078L91.2578 663.785L91.2416 663.769L73.8691 681.141L73.8853 681.158L73.8688 681.174L91.2413 698.547L91.2576 698.53L91.9649 699.237L193.86 801.133L194.567 801.84L193.86 802.547L1.41421 994.993L18.7868 1012.37L211.233 819.92L211.94 819.212L212.647 819.92L244.213 851.486L244.92 852.193L244.213 852.9L111.508 985.605L128.88 1002.98L261.586 870.273L262.293 869.565L263 870.273L313.956 921.228L314.663 921.935L313.956 922.642L201.861 1034.74H200.446L312.542 922.642L313.249 921.935L312.542 921.228L263 871.687L262.293 870.98L261.586 871.687L129.587 1003.69L128.88 1004.39L128.173 1003.69L110.801 986.313L110.093 985.605L110.801 984.898L242.799 852.9L243.506 852.193L242.799 851.486L212.647 821.334L211.94 820.627L211.233 821.334L19.4939 1013.07L18.7868 1013.78L18.0797 1013.07L0.707107 995.7L0 994.993L0.707107 994.286ZM91.0043 1181.28L91.2414 1181.52L91.4786 1181.28H91.0043ZM433.996 321.047L434.703 320.34L433.996 319.633L332.134 217.77L331.427 217.063L330.72 217.77L280.315 268.175L279.607 268.882L280.315 269.59L329.902 319.177L329.86 319.219L329.935 319.294L279.282 369.947L278.575 370.654L279.282 371.361L330.775 422.854L331.482 423.561L332.189 422.854L433.996 321.047ZM331.317 319.177L330.61 318.47L281.729 269.59L281.022 268.882L281.729 268.175L330.72 219.185L331.427 218.477L332.134 219.185L432.582 319.633L433.289 320.34L432.582 321.047L332.189 421.44L331.482 422.147L330.775 421.44L280.696 371.361L279.989 370.654L280.696 369.947L330.642 320.001L331.349 319.294L331.274 319.219L331.317 319.177ZM313.347 200.398L314.054 199.691L313.347 198.984L261.284 146.921L260.577 146.214L259.87 146.921L209.465 197.326L208.758 198.033L209.465 198.74L261.528 250.803L262.235 251.51L262.942 250.803L313.347 200.398ZM294.525 77.5206L295.232 76.8135L294.525 76.1063L263.479 45.0607L262.772 44.3536L262.065 45.0607L228.824 78.3013L228.117 79.0084L228.824 79.7156L259.87 110.761L260.577 111.468L261.284 110.761L294.525 77.5206ZM242.497 129.548L243.204 128.841L242.497 128.134L211.452 97.0881L210.744 96.3811L210.037 97.0881L108.23 198.895L107.523 199.602L108.23 200.309L210.126 302.205L210.833 302.912L211.54 302.205L244.155 269.59L244.862 268.882L244.155 268.175L174.608 198.629L175.237 198L174.641 197.404L242.497 129.548ZM173.194 198.628L173.901 199.336L242.741 268.175L243.448 268.882L242.741 269.59L211.54 300.791L210.833 301.498L210.126 300.791L109.645 200.309L108.938 199.602L109.645 198.895L210.037 98.5024L210.744 97.7953L211.452 98.5024L241.083 128.134L241.79 128.841L241.083 129.548L173.934 196.697L173.227 197.404L173.822 198L173.194 198.628ZM211.54 338.364L210.833 337.657L210.126 338.364L108.801 439.689L108.093 440.396L108.801 441.104L210.663 542.966L211.37 543.673L212.077 542.966L244.139 510.904L244.846 510.197L244.139 509.49L174.608 439.96L174.683 439.885L174.641 439.843L243.123 371.361L243.83 370.654L243.123 369.947L211.54 338.364ZM173.194 439.96L173.901 440.667L242.724 509.49L243.432 510.197L242.724 510.904L212.077 541.552L211.37 542.259L210.663 541.552L110.215 441.104L109.508 440.396L110.215 439.689L210.126 339.778L210.833 339.071L211.54 339.778L241.709 369.947L242.416 370.654L241.709 371.361L173.934 439.136L173.227 439.843L173.269 439.885L173.194 439.96ZM260.495 352.574L261.203 353.281L261.91 352.574L294.525 319.959L295.232 319.252L294.525 318.545L262.942 286.962L262.235 286.255L261.528 286.962L228.913 319.577L228.206 320.284L228.913 320.992L260.495 352.574ZM261.91 388.734L261.203 388.027L260.495 388.734L210.019 439.211L209.311 439.918L210.019 440.625L261.511 492.117L262.218 492.824L262.925 492.117L313.402 441.641L314.109 440.933L313.402 440.226L261.91 388.734ZM332.189 459.013L331.482 458.306L330.775 459.013L280.298 509.49L279.591 510.197L280.298 510.904L329.902 560.508L329.86 560.55L329.935 560.625L279.836 610.724L279.129 611.432L279.836 612.139L331.345 663.648L332.052 664.355L332.759 663.648L434.084 562.323L434.792 561.616L434.084 560.909L332.189 459.013ZM331.317 560.508L330.61 559.801L281.712 510.904L281.005 510.197L281.712 509.49L330.775 460.427L331.482 459.72L332.189 460.427L432.67 560.909L433.377 561.616L432.67 562.323L332.759 662.234L332.052 662.941L331.345 662.234L281.25 612.139L280.543 611.432L281.25 610.724L330.642 561.332L331.349 560.625L331.274 560.551L331.317 560.508ZM294.525 561.29L295.232 560.583L294.525 559.876L262.925 528.277L262.218 527.57L261.511 528.277L229.45 560.339L228.743 561.046L229.45 561.753L261.049 593.352L261.756 594.059L262.463 593.352L294.525 561.29ZM191.981 662.355L191.274 663.062L173.901 680.434L173.197 681.138L173.194 681.142L173.227 681.174L173.901 681.849L192.014 699.961L242.816 750.763L243.523 751.47L242.816 752.177L212.647 782.346L211.94 783.053L211.233 782.346L110.752 681.865L110.045 681.158L110.752 680.451L210.663 580.539L211.37 579.832L212.077 580.539L242.262 610.724L242.969 611.432L242.262 612.139L192.721 661.68L192.013 662.387L191.981 662.355ZM191.981 663.769L174.608 681.141L192.721 699.254L244.23 750.763L244.937 751.47L244.23 752.177L212.647 783.76L211.94 784.467L211.233 783.76L109.337 681.865L108.63 681.158L109.337 680.451L210.663 579.125L211.37 578.418L212.077 579.125L243.676 610.724L244.383 611.432L243.676 612.139L192.721 663.094L192.013 663.801L191.981 663.769ZM261.602 733.39L262.31 734.098L263.017 733.39L313.972 682.435L314.679 681.728L313.972 681.021L262.463 629.511L261.756 628.804L261.049 629.511L210.093 680.467L209.386 681.174L210.093 681.881L261.602 733.39ZM230.02 801.133L229.312 801.84L230.02 802.547L261.586 834.113L262.293 834.82L263 834.113L294.583 802.53L295.29 801.823L294.583 801.116L263.017 769.55L262.31 768.843L261.602 769.55L230.02 801.133ZM281.787 852.9L331.328 902.442L332.035 903.149L332.743 902.442L432.654 802.53L433.361 801.823L432.654 801.116L332.759 701.222L332.052 700.514L331.345 701.222L281.803 750.763L281.096 751.47L281.803 752.177L311.955 782.329L312.663 783.036L312.834 782.864L313.542 783.572L330.914 800.944L331.621 801.651L330.914 802.358L281.787 851.486L281.08 852.193L281.787 852.9ZM312.663 784.451L312.834 784.279L330.207 801.651L280.373 851.486L279.665 852.193L280.373 852.9L331.328 903.856L332.035 904.563L332.743 903.856L434.068 802.53L434.775 801.823L434.068 801.116L332.759 699.807L332.052 699.1L331.345 699.807L280.389 750.763L279.682 751.47L280.389 752.177L311.955 783.743L312.663 784.451ZM260.577 147.628L259.87 148.335L210.879 197.326L210.172 198.033L210.879 198.74L261.528 249.389L262.235 250.096L262.942 249.389L311.933 200.398L312.64 199.691L311.933 198.984L261.284 148.335L260.577 147.628ZM293.818 76.8135L293.111 76.1063L263.479 46.475L262.772 45.7678L262.065 46.475L230.238 78.3013L229.531 79.0084L230.238 79.7156L259.87 109.347L260.577 110.054L261.284 109.347L293.111 77.5206L293.818 76.8135ZM261.203 351.867L261.91 351.16L293.111 319.959L293.818 319.252L293.111 318.545L262.942 288.376L262.235 287.669L261.528 288.376L230.327 319.577L229.62 320.284L230.327 320.992L260.495 351.16L261.203 351.867ZM210.726 439.918L211.433 440.625L261.511 490.703L262.218 491.41L262.925 490.703L311.988 441.641L312.695 440.933L311.988 440.226L261.91 390.148L261.203 389.441L260.495 390.148L211.433 439.211L210.726 439.918ZM293.818 560.583L293.11 559.876L262.925 529.691L262.218 528.984L261.511 529.691L230.864 560.339L230.157 561.046L230.864 561.753L261.049 591.938L261.756 592.645L262.463 591.938L293.11 561.29L293.818 560.583ZM262.31 732.683L263.017 731.976L312.558 682.435L313.265 681.728L312.558 681.021L262.463 630.925L261.756 630.218L261.049 630.925L211.507 680.467L210.8 681.174L211.507 681.881L261.602 731.976L262.31 732.683ZM262.293 833.406L263 832.699L293.169 802.53L293.876 801.823L293.169 801.116L263.017 770.964L262.31 770.257L261.602 770.964L231.434 801.133L230.727 801.84L231.434 802.547L261.586 832.699L262.293 833.406Z" fill="url(#paint0_linear_123_6)"/>
<defs>
<linearGradient id="paint0_linear_123_6" x1="271.174" y1="-179" x2="271.174" y2="1181.52" gradientUnits="userSpaceOnUse">
<stop stop-color="#2C6A13" stop-opacity="0"/>
<stop offset="0.25" stop-color="#2C6A13" stop-opacity="0.21"/>
<stop offset="0.5" stop-color="#2C6A13" stop-opacity="0.5"/>
<stop offset="0.708333" stop-color="#2C6A13" stop-opacity="0.15"/>
<stop offset="0.921875" stop-color="#2C6A13" stop-opacity="0"/>
</linearGradient>
</defs>
</svg>
