<svg width="49" height="46" viewBox="0 0 49 46" fill="none" xmlns="http://www.w3.org/2000/svg">
<path d="M1 16.437C0.723858 16.437 0.5 16.6609 0.5 16.937C0.5 17.2132 0.723858 17.437 1 17.437V16.437ZM1 44.5C0.723858 44.5 0.5 44.7239 0.5 45C0.5 45.2761 0.723858 45.5 1 45.5V44.5ZM30.8865 14.5118V15.0118H31.2766L31.3715 14.6334L30.8865 14.5118ZM27.4113 14.0118C27.1352 14.0118 26.9113 14.2357 26.9113 14.5118C26.9113 14.788 27.1352 15.0118 27.4113 15.0118V14.0118ZM38.8794 20.9409C38.6033 20.9409 38.3794 21.1648 38.3794 21.4409C38.3794 21.7171 38.6033 21.9409 38.8794 21.9409V20.9409ZM38.8794 28.563C38.6033 28.563 38.3794 28.7868 38.3794 29.063C38.3794 29.3391 38.6033 29.563 38.8794 29.563V28.563ZM38.8418 35.1471C38.5665 35.1678 38.3601 35.4079 38.3808 35.6833C38.4016 35.9586 38.6417 36.165 38.917 36.1443L38.8418 35.1471ZM47.5674 25.5984L47.068 25.6233L47.5674 25.5984ZM5.88652 35.2002C5.88652 35.4764 6.11038 35.7002 6.38652 35.7002C6.66267 35.7002 6.88652 35.4764 6.88652 35.2002H5.88652ZM6.88652 38.7638C6.88652 38.4876 6.66267 38.2638 6.38652 38.2638C6.11038 38.2638 5.88652 38.4876 5.88652 38.7638H6.88652ZM5.88652 41.8819C5.88652 42.158 6.11038 42.3819 6.38652 42.3819C6.66267 42.3819 6.88652 42.158 6.88652 41.8819H5.88652ZM19.695 41.9037L19.5606 42.3853L19.695 41.9037ZM30.2134 43.4974L30.1407 43.0027L30.2134 43.4974ZM41.7063 41.8069L41.6336 41.3122L41.7063 41.8069ZM45.2175 34.9245L45.4873 35.3454L45.2175 34.9245ZM8.30928 44.5C8.30494 44.5 8.3006 44.5 8.29626 44.5C8.29192 44.5 8.28757 44.5 8.28322 44.5C8.27888 44.5 8.27453 44.5 8.27017 44.5C8.26582 44.5 8.26147 44.5 8.25711 44.5C8.25275 44.5 8.24839 44.5 8.24403 44.5C8.23967 44.5 8.2353 44.5 8.23093 44.5C8.22657 44.5 8.2222 44.5 8.21783 44.5C8.21345 44.5 8.20908 44.5 8.2047 44.5C8.20033 44.5 8.19595 44.5 8.19156 44.5C8.18718 44.5 8.1828 44.5 8.17841 44.5C8.17403 44.5 8.16964 44.5 8.16525 44.5C8.16085 44.5 8.15646 44.5 8.15207 44.5C8.14767 44.5 8.14327 44.5 8.13887 44.5C8.13447 44.5 8.13007 44.5 8.12566 44.5C8.12126 44.5 8.11685 44.5 8.11244 44.5C8.10803 44.5 8.10362 44.5 8.0992 44.5C8.09479 44.5 8.09037 44.5 8.08595 44.5C8.08153 44.5 8.07711 44.5 8.07268 44.5C8.06826 44.5 8.06383 44.5 8.05941 44.5C8.05498 44.5 8.05055 44.5 8.04611 44.5C8.04168 44.5 8.03724 44.5 8.03281 44.5C8.02837 44.5 8.02393 44.5 8.01949 44.5C8.01504 44.5 8.0106 44.5 8.00615 44.5C8.00171 44.5 7.99726 44.5 7.99281 44.5C7.98835 44.5 7.9839 44.5 7.97945 44.5C7.97499 44.5 7.97053 44.5 7.96607 44.5C7.96161 44.5 7.95715 44.5 7.95268 44.5C7.94822 44.5 7.94375 44.5 7.93928 44.5C7.93481 44.5 7.93034 44.5 7.92587 44.5C7.9214 44.5 7.91692 44.5 7.91244 44.5C7.90796 44.5 7.90348 44.5 7.899 44.5C7.89452 44.5 7.89003 44.5 7.88555 44.5C7.88106 44.5 7.87657 44.5 7.87208 44.5C7.86759 44.5 7.8631 44.5 7.8586 44.5C7.85411 44.5 7.84961 44.5 7.84511 44.5C7.84061 44.5 7.83611 44.5 7.8316 44.5C7.8271 44.5 7.82259 44.5 7.81809 44.5C7.81358 44.5 7.80907 44.5 7.80456 44.5C7.80004 44.5 7.79553 44.5 7.79101 44.5C7.7865 44.5 7.78198 44.5 7.77746 44.5C7.77294 44.5 7.76841 44.5 7.76389 44.5C7.75936 44.5 7.75484 44.5 7.75031 44.5C7.74578 44.5 7.74125 44.5 7.73671 44.5C7.73218 44.5 7.72764 44.5 7.72311 44.5C7.71857 44.5 7.71403 44.5 7.70949 44.5C7.70495 44.5 7.7004 44.5 7.69586 44.5C7.69131 44.5 7.68677 44.5 7.68222 44.5C7.67767 44.5 7.67311 44.5 7.66856 44.5C7.66401 44.5 7.65945 44.5 7.65489 44.5C7.65034 44.5 7.64578 44.5 7.64121 44.5C7.63665 44.5 7.63209 44.5 7.62752 44.5C7.62296 44.5 7.61839 44.5 7.61382 44.5C7.60925 44.5 7.60468 44.5 7.60011 44.5C7.59553 44.5 7.59096 44.5 7.58638 44.5C7.5818 44.5 7.57722 44.5 7.57264 44.5C7.56806 44.5 7.56348 44.5 7.55889 44.5C7.55431 44.5 7.54972 44.5 7.54513 44.5C7.54054 44.5 7.53595 44.5 7.53136 44.5C7.52676 44.5 7.52217 44.5 7.51757 44.5C7.51297 44.5 7.50838 44.5 7.50378 44.5C7.49918 44.5 7.49457 44.5 7.48997 44.5C7.48536 44.5 7.48076 44.5 7.47615 44.5C7.47154 44.5 7.46693 44.5 7.46232 44.5C7.45771 44.5 7.45309 44.5 7.44848 44.5C7.44386 44.5 7.43924 44.5 7.43463 44.5C7.43001 44.5 7.42538 44.5 7.42076 44.5C7.41614 44.5 7.41151 44.5 7.40689 44.5C7.40226 44.5 7.39763 44.5 7.393 44.5C7.38837 44.5 7.38374 44.5 7.37911 44.5C7.37447 44.5 7.36984 44.5 7.3652 44.5C7.36056 44.5 7.35592 44.5 7.35128 44.5C7.34664 44.5 7.342 44.5 7.33735 44.5C7.33271 44.5 7.32806 44.5 7.32341 44.5C7.31876 44.5 7.31411 44.5 7.30946 44.5C7.30481 44.5 7.30016 44.5 7.2955 44.5C7.29084 44.5 7.28619 44.5 7.28153 44.5C7.27687 44.5 7.27221 44.5 7.26755 44.5C7.26288 44.5 7.25822 44.5 7.25355 44.5C7.24889 44.5 7.24422 44.5 7.23955 44.5C7.23488 44.5 7.23021 44.5 7.22554 44.5C7.22087 44.5 7.21619 44.5 7.21152 44.5C7.20684 44.5 7.20216 44.5 7.19748 44.5C7.1928 44.5 7.18812 44.5 7.18344 44.5C7.17876 44.5 7.17407 44.5 7.16939 44.5C7.1647 44.5 7.16001 44.5 7.15532 44.5C7.15063 44.5 7.14594 44.5 7.14125 44.5C7.13656 44.5 7.13186 44.5 7.12717 44.5C7.12247 44.5 7.11777 44.5 7.11307 44.5C7.10837 44.5 7.10367 44.5 7.09897 44.5C7.09427 44.5 7.08956 44.5 7.08486 44.5C7.08015 44.5 7.07544 44.5 7.07074 44.5C7.06603 44.5 7.06132 44.5 7.0566 44.5C7.05189 44.5 7.04718 44.5 7.04246 44.5C7.03775 44.5 7.03303 44.5 7.02831 44.5C7.02359 44.5 7.01887 44.5 7.01415 44.5C7.00943 44.5 7.00471 44.5 6.99998 44.5C6.99526 44.5 6.99053 44.5 6.9858 44.5C6.98108 44.5 6.97635 44.5 6.97162 44.5C6.96689 44.5 6.96215 44.5 6.95742 44.5C6.95268 44.5 6.94795 44.5 6.94321 44.5C6.93848 44.5 6.93374 44.5 6.929 44.5C6.92426 44.5 6.91952 44.5 6.91477 44.5C6.91003 44.5 6.90529 44.5 6.90054 44.5C6.89579 44.5 6.89105 44.5 6.8863 44.5C6.88155 44.5 6.8768 44.5 6.87205 44.5C6.8673 44.5 6.86254 44.5 6.85779 44.5C6.85303 44.5 6.84828 44.5 6.84352 44.5C6.83876 44.5 6.834 44.5 6.82924 44.5C6.82448 44.5 6.81972 44.5 6.81496 44.5C6.81019 44.5 6.80543 44.5 6.80066 44.5C6.7959 44.5 6.79113 44.5 6.78636 44.5C6.78159 44.5 6.77682 44.5 6.77205 44.5C6.76728 44.5 6.7625 44.5 6.75773 44.5C6.75295 44.5 6.74818 44.5 6.7434 44.5C6.73862 44.5 6.73385 44.5 6.72907 44.5C6.72429 44.5 6.7195 44.5 6.71472 44.5C6.70994 44.5 6.70515 44.5 6.70037 44.5C6.69558 44.5 6.6908 44.5 6.68601 44.5C6.68122 44.5 6.67643 44.5 6.67164 44.5C6.66685 44.5 6.66206 44.5 6.65726 44.5C6.65247 44.5 6.64768 44.5 6.64288 44.5C6.63808 44.5 6.63329 44.5 6.62849 44.5C6.62369 44.5 6.61889 44.5 6.61409 44.5C6.60929 44.5 6.60448 44.5 6.59968 44.5C6.59488 44.5 6.59007 44.5 6.58527 44.5C6.58046 44.5 6.57565 44.5 6.57084 44.5C6.56603 44.5 6.56122 44.5 6.55641 44.5C6.5516 44.5 6.54679 44.5 6.54198 44.5C6.53716 44.5 6.53235 44.5 6.52753 44.5C6.52271 44.5 6.5179 44.5 6.51308 44.5C6.50826 44.5 6.50344 44.5 6.49862 44.5C6.4938 44.5 6.48897 44.5 6.48415 44.5C6.47933 44.5 6.4745 44.5 6.46968 44.5C6.46485 44.5 6.46002 44.5 6.45519 44.5C6.45037 44.5 6.44554 44.5 6.44071 44.5C6.43588 44.5 6.43104 44.5 6.42621 44.5C6.42138 44.5 6.41654 44.5 6.41171 44.5C6.40687 44.5 6.40204 44.5 6.3972 44.5C6.39236 44.5 6.38752 44.5 6.38268 44.5C6.37784 44.5 6.373 44.5 6.36816 44.5C6.36332 44.5 6.35847 44.5 6.35363 44.5C6.34879 44.5 6.34394 44.5 6.33909 44.5C6.33425 44.5 6.3294 44.5 6.32455 44.5C6.3197 44.5 6.31485 44.5 6.31 44.5C6.30515 44.5 6.3003 44.5 6.29545 44.5C6.29059 44.5 6.28574 44.5 6.28088 44.5C6.27603 44.5 6.27117 44.5 6.26631 44.5C6.26146 44.5 6.2566 44.5 6.25174 44.5C6.24688 44.5 6.24202 44.5 6.23716 44.5C6.2323 44.5 6.22743 44.5 6.22257 44.5C6.21771 44.5 6.21284 44.5 6.20798 44.5C6.20311 44.5 6.19824 44.5 6.19338 44.5C6.18851 44.5 6.18364 44.5 6.17877 44.5C6.1739 44.5 6.16903 44.5 6.16416 44.5C6.15929 44.5 6.15442 44.5 6.14954 44.5C6.14467 44.5 6.13979 44.5 6.13492 44.5C6.13004 44.5 6.12517 44.5 6.12029 44.5C6.11541 44.5 6.11053 44.5 6.10565 44.5C6.10077 44.5 6.09589 44.5 6.09101 44.5C6.08613 44.5 6.08125 44.5 6.07637 44.5C6.07148 44.5 6.0666 44.5 6.06172 44.5C6.05683 44.5 6.05194 44.5 6.04706 44.5C6.04217 44.5 6.03728 44.5 6.03239 44.5C6.02751 44.5 6.02262 44.5 6.01773 44.5C6.01284 44.5 6.00795 44.5 6.00305 44.5C5.99816 44.5 5.99327 44.5 5.98837 44.5C5.98348 44.5 5.97859 44.5 5.97369 44.5C5.9688 44.5 5.9639 44.5 5.959 44.5C5.9541 44.5 5.94921 44.5 5.94431 44.5C5.93941 44.5 5.93451 44.5 5.92961 44.5C5.92471 44.5 5.91981 44.5 5.9149 44.5C5.91 44.5 5.9051 44.5 5.9002 44.5C5.89529 44.5 5.89039 44.5 5.88548 44.5C5.88058 44.5 5.87567 44.5 5.87076 44.5C5.86586 44.5 5.86095 44.5 5.85604 44.5C5.85113 44.5 5.84622 44.5 5.84131 44.5C5.8364 44.5 5.83149 44.5 5.82658 44.5C5.82167 44.5 5.81675 44.5 5.81184 44.5C5.80693 44.5 5.80201 44.5 5.7971 44.5C5.79218 44.5 5.78727 44.5 5.78235 44.5C5.77744 44.5 5.77252 44.5 5.7676 44.5C5.76268 44.5 5.75777 44.5 5.75285 44.5C5.74793 44.5 5.74301 44.5 5.73809 44.5C5.73317 44.5 5.72825 44.5 5.72332 44.5C5.7184 44.5 5.71348 44.5 5.70856 44.5C5.70363 44.5 5.69871 44.5 5.69378 44.5C5.68886 44.5 5.68393 44.5 5.67901 44.5C5.67408 44.5 5.66916 44.5 5.66423 44.5C5.6593 44.5 5.65437 44.5 5.64945 44.5C5.64452 44.5 5.63959 44.5 5.63466 44.5C5.62973 44.5 5.6248 44.5 5.61987 44.5C5.61494 44.5 5.61 44.5 5.60507 44.5C5.60014 44.5 5.59521 44.5 5.59027 44.5C5.58534 44.5 5.5804 44.5 5.57547 44.5C5.57054 44.5 5.5656 44.5 5.56066 44.5C5.55573 44.5 5.55079 44.5 5.54585 44.5C5.54092 44.5 5.53598 44.5 5.53104 44.5C5.5261 44.5 5.52116 44.5 5.51623 44.5C5.51129 44.5 5.50635 44.5 5.50141 44.5C5.49647 44.5 5.49152 44.5 5.48658 44.5C5.48164 44.5 5.4767 44.5 5.47176 44.5C5.46681 44.5 5.46187 44.5 5.45693 44.5C5.45198 44.5 5.44704 44.5 5.44209 44.5C5.43715 44.5 5.4322 44.5 5.42726 44.5C5.42231 44.5 5.41737 44.5 5.41242 44.5C5.40747 44.5 5.40253 44.5 5.39758 44.5C5.39263 44.5 5.38768 44.5 5.38274 44.5C5.37779 44.5 5.37284 44.5 5.36789 44.5C5.36294 44.5 5.35799 44.5 5.35304 44.5C5.34809 44.5 5.34314 44.5 5.33819 44.5C5.33323 44.5 5.32828 44.5 5.32333 44.5C5.31838 44.5 5.31343 44.5 5.30847 44.5C5.30352 44.5 5.29857 44.5 5.29361 44.5C5.28866 44.5 5.2837 44.5 5.27875 44.5C5.2738 44.5 5.26884 44.5 5.26388 44.5C5.25893 44.5 5.25397 44.5 5.24902 44.5C5.24406 44.5 5.2391 44.5 5.23415 44.5C5.22919 44.5 5.22423 44.5 5.21928 44.5C5.21432 44.5 5.20936 44.5 5.2044 44.5C5.19944 44.5 5.19448 44.5 5.18953 44.5C5.18457 44.5 5.17961 44.5 5.17465 44.5C5.16969 44.5 5.16473 44.5 5.15977 44.5C5.15481 44.5 5.14985 44.5 5.14488 44.5C5.13992 44.5 5.13496 44.5 5.13 44.5C5.12504 44.5 5.12008 44.5 5.11511 44.5C5.11015 44.5 5.10519 44.5 5.10023 44.5C5.09526 44.5 5.0903 44.5 5.08534 44.5C5.08037 44.5 5.07541 44.5 5.07045 44.5C5.06548 44.5 5.06052 44.5 5.05555 44.5C5.05059 44.5 5.04562 44.5 5.04066 44.5C5.03569 44.5 5.03073 44.5 5.02576 44.5C5.0208 44.5 5.01583 44.5 5.01087 44.5C5.0059 44.5 5.00093 44.5 4.99597 44.5C4.991 44.5 4.98604 44.5 4.98107 44.5C4.9761 44.5 4.97113 44.5 4.96617 44.5C4.9612 44.5 4.95623 44.5 4.95127 44.5C4.9463 44.5 4.94133 44.5 4.93636 44.5C4.93139 44.5 4.92643 44.5 4.92146 44.5C4.91649 44.5 4.91152 44.5 4.90655 44.5C4.90158 44.5 4.89662 44.5 4.89165 44.5C4.88668 44.5 4.88171 44.5 4.87674 44.5C4.87177 44.5 4.8668 44.5 4.86183 44.5C4.85686 44.5 4.85189 44.5 4.84692 44.5C4.84195 44.5 4.83698 44.5 4.83201 44.5C4.82704 44.5 4.82207 44.5 4.8171 44.5C4.81213 44.5 4.80716 44.5 4.80219 44.5C4.79722 44.5 4.79225 44.5 4.78728 44.5C4.78231 44.5 4.77734 44.5 4.77237 44.5C4.7674 44.5 4.76243 44.5 4.75746 44.5C4.75249 44.5 4.74752 44.5 4.74254 44.5C4.73757 44.5 4.7326 44.5 4.72763 44.5C4.72266 44.5 4.71769 44.5 4.71272 44.5C4.70775 44.5 4.70278 44.5 4.69781 44.5C4.69283 44.5 4.68786 44.5 4.68289 44.5C4.67792 44.5 4.67295 44.5 4.66798 44.5C4.66301 44.5 4.65804 44.5 4.65307 44.5C4.64809 44.5 4.64312 44.5 4.63815 44.5C4.63318 44.5 4.62821 44.5 4.62324 44.5C4.61827 44.5 4.6133 44.5 4.60833 44.5C4.60335 44.5 4.59838 44.5 4.59341 44.5C4.58844 44.5 4.58347 44.5 4.5785 44.5C4.57353 44.5 4.56856 44.5 4.56359 44.5C4.55862 44.5 4.55365 44.5 4.54868 44.5C4.54371 44.5 4.53874 44.5 4.53376 44.5C4.52879 44.5 4.52382 44.5 4.51885 44.5C4.51388 44.5 4.50891 44.5 4.50394 44.5C4.49897 44.5 4.494 44.5 4.48903 44.5C4.48406 44.5 4.47909 44.5 4.47413 44.5C4.46916 44.5 4.46419 44.5 4.45922 44.5C4.45425 44.5 4.44928 44.5 4.44431 44.5C4.43934 44.5 4.43437 44.5 4.4294 44.5C4.42443 44.5 4.41947 44.5 4.4145 44.5C4.40953 44.5 4.40456 44.5 4.39959 44.5C4.39462 44.5 4.38966 44.5 4.38469 44.5C4.37972 44.5 4.37475 44.5 4.36979 44.5C4.36482 44.5 4.35985 44.5 4.35489 44.5C4.34992 44.5 4.34495 44.5 4.33998 44.5C4.33502 44.5 4.33005 44.5 4.32509 44.5C4.32012 44.5 4.31515 44.5 4.31019 44.5C4.30522 44.5 4.30026 44.5 4.29529 44.5C4.29033 44.5 4.28536 44.5 4.2804 44.5C4.27543 44.5 4.27047 44.5 4.2655 44.5C4.26054 44.5 4.25558 44.5 4.25061 44.5C4.24565 44.5 4.24069 44.5 4.23572 44.5C4.23076 44.5 4.2258 44.5 4.22083 44.5C4.21587 44.5 4.21091 44.5 4.20595 44.5C4.20099 44.5 4.19602 44.5 4.19106 44.5C4.1861 44.5 4.18114 44.5 4.17618 44.5C4.17122 44.5 4.16626 44.5 4.1613 44.5C4.15634 44.5 4.15138 44.5 4.14642 44.5C4.14146 44.5 4.1365 44.5 4.13154 44.5C4.12658 44.5 4.12163 44.5 4.11667 44.5C4.11171 44.5 4.10675 44.5 4.1018 44.5C4.09684 44.5 4.09188 44.5 4.08693 44.5C4.08197 44.5 4.07701 44.5 4.07206 44.5C4.0671 44.5 4.06215 44.5 4.05719 44.5C4.05224 44.5 4.04728 44.5 4.04233 44.5C4.03737 44.5 4.03242 44.5 4.02747 44.5C4.02251 44.5 4.01756 44.5 4.01261 44.5C4.00765 44.5 4.0027 44.5 3.99775 44.5C3.9928 44.5 3.98785 44.5 3.9829 44.5C3.97795 44.5 3.973 44.5 3.96805 44.5C3.9631 44.5 3.95815 44.5 3.9532 44.5C3.94825 44.5 3.9433 44.5 3.93835 44.5C3.93341 44.5 3.92846 44.5 3.92351 44.5C3.91856 44.5 3.91362 44.5 3.90867 44.5C3.90373 44.5 3.89878 44.5 3.89384 44.5C3.88889 44.5 3.88395 44.5 3.879 44.5C3.87406 44.5 3.86911 44.5 3.86417 44.5C3.85923 44.5 3.85429 44.5 3.84934 44.5C3.8444 44.5 3.83946 44.5 3.83452 44.5C3.82958 44.5 3.82464 44.5 3.8197 44.5C3.81476 44.5 3.80982 44.5 3.80488 44.5C3.79994 44.5 3.795 44.5 3.79007 44.5C3.78513 44.5 3.78019 44.5 3.77526 44.5C3.77032 44.5 3.76538 44.5 3.76045 44.5C3.75551 44.5 3.75058 44.5 3.74565 44.5C3.74071 44.5 3.73578 44.5 3.73085 44.5C3.72591 44.5 3.72098 44.5 3.71605 44.5C3.71112 44.5 3.70619 44.5 3.70126 44.5C3.69633 44.5 3.6914 44.5 3.68647 44.5C3.68154 44.5 3.67661 44.5 3.67168 44.5C3.66675 44.5 3.66183 44.5 3.6569 44.5C3.65198 44.5 3.64705 44.5 3.64212 44.5C3.6372 44.5 3.63227 44.5 3.62735 44.5C3.62243 44.5 3.6175 44.5 3.61258 44.5C3.60766 44.5 3.60274 44.5 3.59782 44.5C3.5929 44.5 3.58798 44.5 3.58306 44.5C3.57814 44.5 3.57322 44.5 3.5683 44.5C3.56338 44.5 3.55846 44.5 3.55355 44.5C3.54863 44.5 3.54372 44.5 3.5388 44.5C3.53388 44.5 3.52897 44.5 3.52406 44.5C3.51914 44.5 3.51423 44.5 3.50932 44.5C3.50441 44.5 3.49949 44.5 3.49458 44.5C3.48967 44.5 3.48476 44.5 3.47985 44.5C3.47494 44.5 3.47004 44.5 3.46513 44.5C3.46022 44.5 3.45531 44.5 3.45041 44.5C3.4455 44.5 3.4406 44.5 3.43569 44.5C3.43079 44.5 3.42588 44.5 3.42098 44.5C3.41608 44.5 3.41118 44.5 3.40628 44.5C3.40137 44.5 3.39647 44.5 3.39157 44.5C3.38667 44.5 3.38178 44.5 3.37688 44.5C3.37198 44.5 3.36708 44.5 3.36219 44.5C3.35729 44.5 3.3524 44.5 3.3475 44.5C3.34261 44.5 3.33771 44.5 3.33282 44.5C3.32793 44.5 3.32304 44.5 3.31815 44.5C3.31325 44.5 3.30836 44.5 3.30348 44.5C3.29859 44.5 3.2937 44.5 3.28881 44.5C3.28392 44.5 3.27904 44.5 3.27415 44.5C3.26927 44.5 3.26438 44.5 3.2595 44.5C3.25461 44.5 3.24973 44.5 3.24485 44.5C3.23997 44.5 3.23509 44.5 3.23021 44.5C3.22533 44.5 3.22045 44.5 3.21557 44.5C3.21069 44.5 3.20581 44.5 3.20094 44.5C3.19606 44.5 3.19119 44.5 3.18631 44.5C3.18144 44.5 3.17657 44.5 3.17169 44.5C3.16682 44.5 3.16195 44.5 3.15708 44.5C3.15221 44.5 3.14734 44.5 3.14247 44.5C3.1376 44.5 3.13274 44.5 3.12787 44.5C3.123 44.5 3.11814 44.5 3.11327 44.5C3.10841 44.5 3.10355 44.5 3.09868 44.5C3.09382 44.5 3.08896 44.5 3.0841 44.5C3.07924 44.5 3.07438 44.5 3.06952 44.5C3.06467 44.5 3.05981 44.5 3.05495 44.5C3.0501 44.5 3.04524 44.5 3.04039 44.5C3.03553 44.5 3.03068 44.5 3.02583 44.5C3.02098 44.5 3.01613 44.5 3.01128 44.5C3.00643 44.5 3.00158 44.5 2.99673 44.5C2.99189 44.5 2.98704 44.5 2.98219 44.5C2.97735 44.5 2.9725 44.5 2.96766 44.5C2.96282 44.5 2.95798 44.5 2.95314 44.5C2.9483 44.5 2.94346 44.5 2.93862 44.5C2.93378 44.5 2.92894 44.5 2.92411 44.5C2.91927 44.5 2.91444 44.5 2.9096 44.5C2.90477 44.5 2.89993 44.5 2.8951 44.5C2.89027 44.5 2.88544 44.5 2.88061 44.5C2.87578 44.5 2.87096 44.5 2.86613 44.5C2.8613 44.5 2.85648 44.5 2.85165 44.5C2.84683 44.5 2.842 44.5 2.83718 44.5C2.83236 44.5 2.82754 44.5 2.82272 44.5C2.8179 44.5 2.81308 44.5 2.80826 44.5C2.80345 44.5 2.79863 44.5 2.79382 44.5C2.789 44.5 2.78419 44.5 2.77938 44.5C2.77456 44.5 2.76975 44.5 2.76494 44.5C2.76013 44.5 2.75533 44.5 2.75052 44.5C2.74571 44.5 2.7409 44.5 2.7361 44.5C2.7313 44.5 2.72649 44.5 2.72169 44.5C2.71689 44.5 2.71209 44.5 2.70729 44.5C2.70249 44.5 2.69769 44.5 2.69289 44.5C2.6881 44.5 2.6833 44.5 2.67851 44.5C2.67371 44.5 2.66892 44.5 2.66413 44.5C2.65934 44.5 2.65454 44.5 2.64976 44.5C2.64497 44.5 2.64018 44.5 2.63539 44.5C2.63061 44.5 2.62582 44.5 2.62104 44.5C2.61625 44.5 2.61147 44.5 2.60669 44.5C2.60191 44.5 2.59713 44.5 2.59235 44.5C2.58757 44.5 2.5828 44.5 2.57802 44.5C2.57325 44.5 2.56847 44.5 2.5637 44.5C2.55893 44.5 2.55415 44.5 2.54938 44.5C2.54461 44.5 2.53985 44.5 2.53508 44.5C2.53031 44.5 2.52555 44.5 2.52078 44.5C2.51602 44.5 2.51125 44.5 2.50649 44.5C2.50173 44.5 2.49697 44.5 2.49221 44.5C2.48745 44.5 2.4827 44.5 2.47794 44.5C2.47319 44.5 2.46843 44.5 2.46368 44.5C2.45893 44.5 2.45417 44.5 2.44943 44.5C2.44468 44.5 2.43993 44.5 2.43518 44.5C2.43043 44.5 2.42569 44.5 2.42094 44.5C2.4162 44.5 2.41146 44.5 2.40672 44.5C2.40198 44.5 2.39724 44.5 2.3925 44.5C2.38776 44.5 2.38302 44.5 2.37829 44.5C2.37355 44.5 2.36882 44.5 2.36409 44.5C2.35936 44.5 2.35463 44.5 2.3499 44.5C2.34517 44.5 2.34044 44.5 2.33571 44.5C2.33099 44.5 2.32626 44.5 2.32154 44.5C2.31682 44.5 2.3121 44.5 2.30738 44.5C2.30266 44.5 2.29794 44.5 2.29322 44.5C2.28851 44.5 2.28379 44.5 2.27908 44.5C2.27437 44.5 2.26966 44.5 2.26495 44.5C2.26024 44.5 2.25553 44.5 2.25082 44.5C2.24611 44.5 2.24141 44.5 2.2367 44.5C2.232 44.5 2.2273 44.5 2.2226 44.5C2.2179 44.5 2.2132 44.5 2.2085 44.5C2.2038 44.5 2.19911 44.5 2.19441 44.5C2.18972 44.5 2.18503 44.5 2.18034 44.5C2.17565 44.5 2.17096 44.5 2.16627 44.5C2.16158 44.5 2.1569 44.5 2.15221 44.5C2.14753 44.5 2.14285 44.5 2.13817 44.5C2.13349 44.5 2.12881 44.5 2.12413 44.5C2.11945 44.5 2.11478 44.5 2.1101 44.5C2.10543 44.5 2.10076 44.5 2.09609 44.5C2.09142 44.5 2.08675 44.5 2.08208 44.5C2.07741 44.5 2.07275 44.5 2.06809 44.5C2.06342 44.5 2.05876 44.5 2.0541 44.5C2.04944 44.5 2.04478 44.5 2.04012 44.5C2.03547 44.5 2.03081 44.5 2.02616 44.5C2.02151 44.5 2.01686 44.5 2.01221 44.5C2.00756 44.5 2.00291 44.5 1.99826 44.5C1.99362 44.5 1.98897 44.5 1.98433 44.5C1.97969 44.5 1.97505 44.5 1.97041 44.5C1.96577 44.5 1.96113 44.5 1.9565 44.5C1.95186 44.5 1.94723 44.5 1.9426 44.5C1.93796 44.5 1.93333 44.5 1.92871 44.5C1.92408 44.5 1.91945 44.5 1.91483 44.5C1.9102 44.5 1.90558 44.5 1.90096 44.5C1.89634 44.5 1.89172 44.5 1.8871 44.5C1.88249 44.5 1.87787 44.5 1.87326 44.5C1.86865 44.5 1.86403 44.5 1.85942 44.5C1.85482 44.5 1.85021 44.5 1.8456 44.5C1.841 44.5 1.83639 44.5 1.83179 44.5C1.82719 44.5 1.82259 44.5 1.81799 44.5C1.81339 44.5 1.8088 44.5 1.8042 44.5C1.79961 44.5 1.79502 44.5 1.79042 44.5C1.78583 44.5 1.78125 44.5 1.77666 44.5C1.77207 44.5 1.76749 44.5 1.7629 44.5C1.75832 44.5 1.75374 44.5 1.74916 44.5C1.74458 44.5 1.74001 44.5 1.73543 44.5C1.73086 44.5 1.72628 44.5 1.72171 44.5C1.71714 44.5 1.71257 44.5 1.70801 44.5C1.70344 44.5 1.69887 44.5 1.69431 44.5C1.68975 44.5 1.68519 44.5 1.68063 44.5C1.67607 44.5 1.67151 44.5 1.66696 44.5C1.6624 44.5 1.65785 44.5 1.6533 44.5C1.64875 44.5 1.6442 44.5 1.63965 44.5C1.6351 44.5 1.63056 44.5 1.62602 44.5C1.62147 44.5 1.61693 44.5 1.61239 44.5C1.60785 44.5 1.60332 44.5 1.59878 44.5C1.59425 44.5 1.58971 44.5 1.58518 44.5C1.58065 44.5 1.57613 44.5 1.5716 44.5C1.56707 44.5 1.56255 44.5 1.55803 44.5C1.5535 44.5 1.54898 44.5 1.54447 44.5C1.53995 44.5 1.53543 44.5 1.53092 44.5C1.5264 44.5 1.52189 44.5 1.51738 44.5C1.51287 44.5 1.50836 44.5 1.50386 44.5C1.49935 44.5 1.49485 44.5 1.49035 44.5C1.48585 44.5 1.48135 44.5 1.47685 44.5C1.47236 44.5 1.46786 44.5 1.46337 44.5C1.45888 44.5 1.45439 44.5 1.4499 44.5C1.44541 44.5 1.44092 44.5 1.43644 44.5C1.43196 44.5 1.42747 44.5 1.42299 44.5C1.41852 44.5 1.41404 44.5 1.40956 44.5C1.40509 44.5 1.40061 44.5 1.39614 44.5C1.39167 44.5 1.3872 44.5 1.38274 44.5C1.37827 44.5 1.37381 44.5 1.36935 44.5C1.36488 44.5 1.36042 44.5 1.35597 44.5C1.35151 44.5 1.34705 44.5 1.3426 44.5C1.33815 44.5 1.3337 44.5 1.32925 44.5C1.3248 44.5 1.32036 44.5 1.31591 44.5C1.31147 44.5 1.30703 44.5 1.30259 44.5C1.29815 44.5 1.29371 44.5 1.28928 44.5C1.28484 44.5 1.28041 44.5 1.27598 44.5C1.27155 44.5 1.26712 44.5 1.26269 44.5C1.25827 44.5 1.25385 44.5 1.24942 44.5C1.245 44.5 1.24058 44.5 1.23617 44.5C1.23175 44.5 1.22734 44.5 1.22293 44.5C1.21851 44.5 1.21411 44.5 1.2097 44.5C1.20529 44.5 1.20089 44.5 1.19648 44.5C1.19208 44.5 1.18768 44.5 1.18328 44.5C1.17889 44.5 1.17449 44.5 1.1701 44.5C1.16571 44.5 1.16132 44.5 1.15693 44.5C1.15254 44.5 1.14815 44.5 1.14377 44.5C1.13939 44.5 1.13501 44.5 1.13063 44.5C1.12625 44.5 1.12187 44.5 1.1175 44.5C1.11312 44.5 1.10875 44.5 1.10438 44.5C1.10002 44.5 1.09565 44.5 1.09128 44.5C1.08692 44.5 1.08256 44.5 1.0782 44.5C1.07384 44.5 1.06948 44.5 1.06513 44.5C1.06078 44.5 1.05642 44.5 1.05207 44.5C1.04772 44.5 1.04338 44.5 1.03903 44.5C1.03469 44.5 1.03035 44.5 1.02601 44.5C1.02167 44.5 1.01733 44.5 1.013 44.5C1.00866 44.5 1.00433 44.5 1 44.5V45.5C1.00433 45.5 1.00866 45.5 1.013 45.5C1.01733 45.5 1.02167 45.5 1.02601 45.5C1.03035 45.5 1.03469 45.5 1.03903 45.5C1.04338 45.5 1.04772 45.5 1.05207 45.5C1.05642 45.5 1.06078 45.5 1.06513 45.5C1.06948 45.5 1.07384 45.5 1.0782 45.5C1.08256 45.5 1.08692 45.5 1.09128 45.5C1.09565 45.5 1.10002 45.5 1.10438 45.5C1.10875 45.5 1.11312 45.5 1.1175 45.5C1.12187 45.5 1.12625 45.5 1.13063 45.5C1.13501 45.5 1.13939 45.5 1.14377 45.5C1.14815 45.5 1.15254 45.5 1.15693 45.5C1.16132 45.5 1.16571 45.5 1.1701 45.5C1.17449 45.5 1.17889 45.5 1.18328 45.5C1.18768 45.5 1.19208 45.5 1.19648 45.5C1.20089 45.5 1.20529 45.5 1.2097 45.5C1.21411 45.5 1.21851 45.5 1.22293 45.5C1.22734 45.5 1.23175 45.5 1.23617 45.5C1.24058 45.5 1.245 45.5 1.24942 45.5C1.25385 45.5 1.25827 45.5 1.26269 45.5C1.26712 45.5 1.27155 45.5 1.27598 45.5C1.28041 45.5 1.28484 45.5 1.28928 45.5C1.29371 45.5 1.29815 45.5 1.30259 45.5C1.30703 45.5 1.31147 45.5 1.31591 45.5C1.32036 45.5 1.3248 45.5 1.32925 45.5C1.3337 45.5 1.33815 45.5 1.3426 45.5C1.34705 45.5 1.35151 45.5 1.35597 45.5C1.36042 45.5 1.36488 45.5 1.36935 45.5C1.37381 45.5 1.37827 45.5 1.38274 45.5C1.3872 45.5 1.39167 45.5 1.39614 45.5C1.40061 45.5 1.40509 45.5 1.40956 45.5C1.41404 45.5 1.41852 45.5 1.42299 45.5C1.42747 45.5 1.43196 45.5 1.43644 45.5C1.44092 45.5 1.44541 45.5 1.4499 45.5C1.45439 45.5 1.45888 45.5 1.46337 45.5C1.46786 45.5 1.47236 45.5 1.47685 45.5C1.48135 45.5 1.48585 45.5 1.49035 45.5C1.49485 45.5 1.49935 45.5 1.50386 45.5C1.50836 45.5 1.51287 45.5 1.51738 45.5C1.52189 45.5 1.5264 45.5 1.53092 45.5C1.53543 45.5 1.53995 45.5 1.54447 45.5C1.54898 45.5 1.5535 45.5 1.55803 45.5C1.56255 45.5 1.56707 45.5 1.5716 45.5C1.57613 45.5 1.58065 45.5 1.58518 45.5C1.58971 45.5 1.59425 45.5 1.59878 45.5C1.60332 45.5 1.60785 45.5 1.61239 45.5C1.61693 45.5 1.62147 45.5 1.62602 45.5C1.63056 45.5 1.6351 45.5 1.63965 45.5C1.6442 45.5 1.64875 45.5 1.6533 45.5C1.65785 45.5 1.6624 45.5 1.66696 45.5C1.67151 45.5 1.67607 45.5 1.68063 45.5C1.68519 45.5 1.68975 45.5 1.69431 45.5C1.69887 45.5 1.70344 45.5 1.70801 45.5C1.71257 45.5 1.71714 45.5 1.72171 45.5C1.72628 45.5 1.73086 45.5 1.73543 45.5C1.74001 45.5 1.74458 45.5 1.74916 45.5C1.75374 45.5 1.75832 45.5 1.7629 45.5C1.76749 45.5 1.77207 45.5 1.77666 45.5C1.78125 45.5 1.78583 45.5 1.79042 45.5C1.79502 45.5 1.79961 45.5 1.8042 45.5C1.8088 45.5 1.81339 45.5 1.81799 45.5C1.82259 45.5 1.82719 45.5 1.83179 45.5C1.83639 45.5 1.841 45.5 1.8456 45.5C1.85021 45.5 1.85482 45.5 1.85942 45.5C1.86403 45.5 1.86865 45.5 1.87326 45.5C1.87787 45.5 1.88249 45.5 1.8871 45.5C1.89172 45.5 1.89634 45.5 1.90096 45.5C1.90558 45.5 1.9102 45.5 1.91483 45.5C1.91945 45.5 1.92408 45.5 1.92871 45.5C1.93333 45.5 1.93796 45.5 1.9426 45.5C1.94723 45.5 1.95186 45.5 1.9565 45.5C1.96113 45.5 1.96577 45.5 1.97041 45.5C1.97505 45.5 1.97969 45.5 1.98433 45.5C1.98897 45.5 1.99362 45.5 1.99826 45.5C2.00291 45.5 2.00756 45.5 2.01221 45.5C2.01686 45.5 2.02151 45.5 2.02616 45.5C2.03081 45.5 2.03547 45.5 2.04012 45.5C2.04478 45.5 2.04944 45.5 2.0541 45.5C2.05876 45.5 2.06342 45.5 2.06809 45.5C2.07275 45.5 2.07741 45.5 2.08208 45.5C2.08675 45.5 2.09142 45.5 2.09609 45.5C2.10076 45.5 2.10543 45.5 2.1101 45.5C2.11478 45.5 2.11945 45.5 2.12413 45.5C2.12881 45.5 2.13349 45.5 2.13817 45.5C2.14285 45.5 2.14753 45.5 2.15221 45.5C2.1569 45.5 2.16158 45.5 2.16627 45.5C2.17096 45.5 2.17565 45.5 2.18034 45.5C2.18503 45.5 2.18972 45.5 2.19441 45.5C2.19911 45.5 2.2038 45.5 2.2085 45.5C2.2132 45.5 2.2179 45.5 2.2226 45.5C2.2273 45.5 2.232 45.5 2.2367 45.5C2.24141 45.5 2.24611 45.5 2.25082 45.5C2.25553 45.5 2.26024 45.5 2.26495 45.5C2.26966 45.5 2.27437 45.5 2.27908 45.5C2.28379 45.5 2.28851 45.5 2.29322 45.5C2.29794 45.5 2.30266 45.5 2.30738 45.5C2.3121 45.5 2.31682 45.5 2.32154 45.5C2.32626 45.5 2.33099 45.5 2.33571 45.5C2.34044 45.5 2.34517 45.5 2.3499 45.5C2.35463 45.5 2.35936 45.5 2.36409 45.5C2.36882 45.5 2.37355 45.5 2.37829 45.5C2.38302 45.5 2.38776 45.5 2.3925 45.5C2.39724 45.5 2.40198 45.5 2.40672 45.5C2.41146 45.5 2.4162 45.5 2.42094 45.5C2.42569 45.5 2.43043 45.5 2.43518 45.5C2.43993 45.5 2.44468 45.5 2.44943 45.5C2.45417 45.5 2.45893 45.5 2.46368 45.5C2.46843 45.5 2.47319 45.5 2.47794 45.5C2.4827 45.5 2.48745 45.5 2.49221 45.5C2.49697 45.5 2.50173 45.5 2.50649 45.5C2.51125 45.5 2.51602 45.5 2.52078 45.5C2.52555 45.5 2.53031 45.5 2.53508 45.5C2.53985 45.5 2.54461 45.5 2.54938 45.5C2.55415 45.5 2.55893 45.5 2.5637 45.5C2.56847 45.5 2.57325 45.5 2.57802 45.5C2.5828 45.5 2.58757 45.5 2.59235 45.5C2.59713 45.5 2.60191 45.5 2.60669 45.5C2.61147 45.5 2.61625 45.5 2.62104 45.5C2.62582 45.5 2.63061 45.5 2.63539 45.5C2.64018 45.5 2.64497 45.5 2.64976 45.5C2.65454 45.5 2.65934 45.5 2.66413 45.5C2.66892 45.5 2.67371 45.5 2.67851 45.5C2.6833 45.5 2.6881 45.5 2.69289 45.5C2.69769 45.5 2.70249 45.5 2.70729 45.5C2.71209 45.5 2.71689 45.5 2.72169 45.5C2.72649 45.5 2.7313 45.5 2.7361 45.5C2.7409 45.5 2.74571 45.5 2.75052 45.5C2.75533 45.5 2.76013 45.5 2.76494 45.5C2.76975 45.5 2.77456 45.5 2.77938 45.5C2.78419 45.5 2.789 45.5 2.79382 45.5C2.79863 45.5 2.80345 45.5 2.80826 45.5C2.81308 45.5 2.8179 45.5 2.82272 45.5C2.82754 45.5 2.83236 45.5 2.83718 45.5C2.842 45.5 2.84683 45.5 2.85165 45.5C2.85648 45.5 2.8613 45.5 2.86613 45.5C2.87096 45.5 2.87578 45.5 2.88061 45.5C2.88544 45.5 2.89027 45.5 2.8951 45.5C2.89993 45.5 2.90477 45.5 2.9096 45.5C2.91444 45.5 2.91927 45.5 2.92411 45.5C2.92894 45.5 2.93378 45.5 2.93862 45.5C2.94346 45.5 2.9483 45.5 2.95314 45.5C2.95798 45.5 2.96282 45.5 2.96766 45.5C2.9725 45.5 2.97735 45.5 2.98219 45.5C2.98704 45.5 2.99189 45.5 2.99673 45.5C3.00158 45.5 3.00643 45.5 3.01128 45.5C3.01613 45.5 3.02098 45.5 3.02583 45.5C3.03068 45.5 3.03553 45.5 3.04039 45.5C3.04524 45.5 3.0501 45.5 3.05495 45.5C3.05981 45.5 3.06467 45.5 3.06952 45.5C3.07438 45.5 3.07924 45.5 3.0841 45.5C3.08896 45.5 3.09382 45.5 3.09868 45.5C3.10355 45.5 3.10841 45.5 3.11327 45.5C3.11814 45.5 3.123 45.5 3.12787 45.5C3.13274 45.5 3.1376 45.5 3.14247 45.5C3.14734 45.5 3.15221 45.5 3.15708 45.5C3.16195 45.5 3.16682 45.5 3.17169 45.5C3.17657 45.5 3.18144 45.5 3.18631 45.5C3.19119 45.5 3.19606 45.5 3.20094 45.5C3.20581 45.5 3.21069 45.5 3.21557 45.5C3.22045 45.5 3.22533 45.5 3.23021 45.5C3.23509 45.5 3.23997 45.5 3.24485 45.5C3.24973 45.5 3.25461 45.5 3.2595 45.5C3.26438 45.5 3.26927 45.5 3.27415 45.5C3.27904 45.5 3.28392 45.5 3.28881 45.5C3.2937 45.5 3.29859 45.5 3.30348 45.5C3.30836 45.5 3.31325 45.5 3.31815 45.5C3.32304 45.5 3.32793 45.5 3.33282 45.5C3.33771 45.5 3.34261 45.5 3.3475 45.5C3.3524 45.5 3.35729 45.5 3.36219 45.5C3.36708 45.5 3.37198 45.5 3.37688 45.5C3.38178 45.5 3.38667 45.5 3.39157 45.5C3.39647 45.5 3.40137 45.5 3.40628 45.5C3.41118 45.5 3.41608 45.5 3.42098 45.5C3.42588 45.5 3.43079 45.5 3.43569 45.5C3.4406 45.5 3.4455 45.5 3.45041 45.5C3.45531 45.5 3.46022 45.5 3.46513 45.5C3.47004 45.5 3.47494 45.5 3.47985 45.5C3.48476 45.5 3.48967 45.5 3.49458 45.5C3.49949 45.5 3.50441 45.5 3.50932 45.5C3.51423 45.5 3.51914 45.5 3.52406 45.5C3.52897 45.5 3.53388 45.5 3.5388 45.5C3.54372 45.5 3.54863 45.5 3.55355 45.5C3.55846 45.5 3.56338 45.5 3.5683 45.5C3.57322 45.5 3.57814 45.5 3.58306 45.5C3.58798 45.5 3.5929 45.5 3.59782 45.5C3.60274 45.5 3.60766 45.5 3.61258 45.5C3.6175 45.5 3.62243 45.5 3.62735 45.5C3.63227 45.5 3.6372 45.5 3.64212 45.5C3.64705 45.5 3.65198 45.5 3.6569 45.5C3.66183 45.5 3.66675 45.5 3.67168 45.5C3.67661 45.5 3.68154 45.5 3.68647 45.5C3.6914 45.5 3.69633 45.5 3.70126 45.5C3.70619 45.5 3.71112 45.5 3.71605 45.5C3.72098 45.5 3.72591 45.5 3.73085 45.5C3.73578 45.5 3.74071 45.5 3.74565 45.5C3.75058 45.5 3.75551 45.5 3.76045 45.5C3.76538 45.5 3.77032 45.5 3.77526 45.5C3.78019 45.5 3.78513 45.5 3.79007 45.5C3.795 45.5 3.79994 45.5 3.80488 45.5C3.80982 45.5 3.81476 45.5 3.8197 45.5C3.82464 45.5 3.82958 45.5 3.83452 45.5C3.83946 45.5 3.8444 45.5 3.84934 45.5C3.85429 45.5 3.85923 45.5 3.86417 45.5C3.86911 45.5 3.87406 45.5 3.879 45.5C3.88395 45.5 3.88889 45.5 3.89384 45.5C3.89878 45.5 3.90373 45.5 3.90867 45.5C3.91362 45.5 3.91856 45.5 3.92351 45.5C3.92846 45.5 3.93341 45.5 3.93835 45.5C3.9433 45.5 3.94825 45.5 3.9532 45.5C3.95815 45.5 3.9631 45.5 3.96805 45.5C3.973 45.5 3.97795 45.5 3.9829 45.5C3.98785 45.5 3.9928 45.5 3.99775 45.5C4.0027 45.5 4.00765 45.5 4.01261 45.5C4.01756 45.5 4.02251 45.5 4.02747 45.5C4.03242 45.5 4.03737 45.5 4.04233 45.5C4.04728 45.5 4.05224 45.5 4.05719 45.5C4.06215 45.5 4.0671 45.5 4.07206 45.5C4.07701 45.5 4.08197 45.5 4.08693 45.5C4.09188 45.5 4.09684 45.5 4.1018 45.5C4.10675 45.5 4.11171 45.5 4.11667 45.5C4.12163 45.5 4.12658 45.5 4.13154 45.5C4.1365 45.5 4.14146 45.5 4.14642 45.5C4.15138 45.5 4.15634 45.5 4.1613 45.5C4.16626 45.5 4.17122 45.5 4.17618 45.5C4.18114 45.5 4.1861 45.5 4.19106 45.5C4.19602 45.5 4.20099 45.5 4.20595 45.5C4.21091 45.5 4.21587 45.5 4.22083 45.5C4.2258 45.5 4.23076 45.5 4.23572 45.5C4.24069 45.5 4.24565 45.5 4.25061 45.5C4.25558 45.5 4.26054 45.5 4.2655 45.5C4.27047 45.5 4.27543 45.5 4.2804 45.5C4.28536 45.5 4.29033 45.5 4.29529 45.5C4.30026 45.5 4.30522 45.5 4.31019 45.5C4.31515 45.5 4.32012 45.5 4.32509 45.5C4.33005 45.5 4.33502 45.5 4.33998 45.5C4.34495 45.5 4.34992 45.5 4.35489 45.5C4.35985 45.5 4.36482 45.5 4.36979 45.5C4.37475 45.5 4.37972 45.5 4.38469 45.5C4.38966 45.5 4.39462 45.5 4.39959 45.5C4.40456 45.5 4.40953 45.5 4.4145 45.5C4.41947 45.5 4.42443 45.5 4.4294 45.5C4.43437 45.5 4.43934 45.5 4.44431 45.5C4.44928 45.5 4.45425 45.5 4.45922 45.5C4.46419 45.5 4.46916 45.5 4.47413 45.5C4.47909 45.5 4.48406 45.5 4.48903 45.5C4.494 45.5 4.49897 45.5 4.50394 45.5C4.50891 45.5 4.51388 45.5 4.51885 45.5C4.52382 45.5 4.52879 45.5 4.53376 45.5C4.53874 45.5 4.54371 45.5 4.54868 45.5C4.55365 45.5 4.55862 45.5 4.56359 45.5C4.56856 45.5 4.57353 45.5 4.5785 45.5C4.58347 45.5 4.58844 45.5 4.59341 45.5C4.59838 45.5 4.60335 45.5 4.60833 45.5C4.6133 45.5 4.61827 45.5 4.62324 45.5C4.62821 45.5 4.63318 45.5 4.63815 45.5C4.64312 45.5 4.64809 45.5 4.65307 45.5C4.65804 45.5 4.66301 45.5 4.66798 45.5C4.67295 45.5 4.67792 45.5 4.68289 45.5C4.68786 45.5 4.69283 45.5 4.69781 45.5C4.70278 45.5 4.70775 45.5 4.71272 45.5C4.71769 45.5 4.72266 45.5 4.72763 45.5C4.7326 45.5 4.73757 45.5 4.74254 45.5C4.74752 45.5 4.75249 45.5 4.75746 45.5C4.76243 45.5 4.7674 45.5 4.77237 45.5C4.77734 45.5 4.78231 45.5 4.78728 45.5C4.79225 45.5 4.79722 45.5 4.80219 45.5C4.80716 45.5 4.81213 45.5 4.8171 45.5C4.82207 45.5 4.82704 45.5 4.83201 45.5C4.83698 45.5 4.84195 45.5 4.84692 45.5C4.85189 45.5 4.85686 45.5 4.86183 45.5C4.8668 45.5 4.87177 45.5 4.87674 45.5C4.88171 45.5 4.88668 45.5 4.89165 45.5C4.89662 45.5 4.90158 45.5 4.90655 45.5C4.91152 45.5 4.91649 45.5 4.92146 45.5C4.92643 45.5 4.93139 45.5 4.93636 45.5C4.94133 45.5 4.9463 45.5 4.95127 45.5C4.95623 45.5 4.9612 45.5 4.96617 45.5C4.97113 45.5 4.9761 45.5 4.98107 45.5C4.98604 45.5 4.991 45.5 4.99597 45.5C5.00093 45.5 5.0059 45.5 5.01087 45.5C5.01583 45.5 5.0208 45.5 5.02576 45.5C5.03073 45.5 5.03569 45.5 5.04066 45.5C5.04562 45.5 5.05059 45.5 5.05555 45.5C5.06052 45.5 5.06548 45.5 5.07045 45.5C5.07541 45.5 5.08037 45.5 5.08534 45.5C5.0903 45.5 5.09526 45.5 5.10023 45.5C5.10519 45.5 5.11015 45.5 5.11511 45.5C5.12008 45.5 5.12504 45.5 5.13 45.5C5.13496 45.5 5.13992 45.5 5.14488 45.5C5.14985 45.5 5.15481 45.5 5.15977 45.5C5.16473 45.5 5.16969 45.5 5.17465 45.5C5.17961 45.5 5.18457 45.5 5.18953 45.5C5.19448 45.5 5.19944 45.5 5.2044 45.5C5.20936 45.5 5.21432 45.5 5.21928 45.5C5.22423 45.5 5.22919 45.5 5.23415 45.5C5.2391 45.5 5.24406 45.5 5.24902 45.5C5.25397 45.5 5.25893 45.5 5.26388 45.5C5.26884 45.5 5.2738 45.5 5.27875 45.5C5.2837 45.5 5.28866 45.5 5.29361 45.5C5.29857 45.5 5.30352 45.5 5.30847 45.5C5.31343 45.5 5.31838 45.5 5.32333 45.5C5.32828 45.5 5.33323 45.5 5.33819 45.5C5.34314 45.5 5.34809 45.5 5.35304 45.5C5.35799 45.5 5.36294 45.5 5.36789 45.5C5.37284 45.5 5.37779 45.5 5.38274 45.5C5.38768 45.5 5.39263 45.5 5.39758 45.5C5.40253 45.5 5.40747 45.5 5.41242 45.5C5.41737 45.5 5.42231 45.5 5.42726 45.5C5.4322 45.5 5.43715 45.5 5.44209 45.5C5.44704 45.5 5.45198 45.5 5.45693 45.5C5.46187 45.5 5.46681 45.5 5.47176 45.5C5.4767 45.5 5.48164 45.5 5.48658 45.5C5.49152 45.5 5.49647 45.5 5.50141 45.5C5.50635 45.5 5.51129 45.5 5.51623 45.5C5.52116 45.5 5.5261 45.5 5.53104 45.5C5.53598 45.5 5.54092 45.5 5.54585 45.5C5.55079 45.5 5.55573 45.5 5.56066 45.5C5.5656 45.5 5.57054 45.5 5.57547 45.5C5.5804 45.5 5.58534 45.5 5.59027 45.5C5.59521 45.5 5.60014 45.5 5.60507 45.5C5.61 45.5 5.61494 45.5 5.61987 45.5C5.6248 45.5 5.62973 45.5 5.63466 45.5C5.63959 45.5 5.64452 45.5 5.64945 45.5C5.65437 45.5 5.6593 45.5 5.66423 45.5C5.66916 45.5 5.67408 45.5 5.67901 45.5C5.68393 45.5 5.68886 45.5 5.69378 45.5C5.69871 45.5 5.70363 45.5 5.70856 45.5C5.71348 45.5 5.7184 45.5 5.72332 45.5C5.72825 45.5 5.73317 45.5 5.73809 45.5C5.74301 45.5 5.74793 45.5 5.75285 45.5C5.75777 45.5 5.76268 45.5 5.7676 45.5C5.77252 45.5 5.77744 45.5 5.78235 45.5C5.78727 45.5 5.79218 45.5 5.7971 45.5C5.80201 45.5 5.80693 45.5 5.81184 45.5C5.81675 45.5 5.82167 45.5 5.82658 45.5C5.83149 45.5 5.8364 45.5 5.84131 45.5C5.84622 45.5 5.85113 45.5 5.85604 45.5C5.86095 45.5 5.86586 45.5 5.87076 45.5C5.87567 45.5 5.88058 45.5 5.88548 45.5C5.89039 45.5 5.89529 45.5 5.9002 45.5C5.9051 45.5 5.91 45.5 5.9149 45.5C5.91981 45.5 5.92471 45.5 5.92961 45.5C5.93451 45.5 5.93941 45.5 5.94431 45.5C5.94921 45.5 5.9541 45.5 5.959 45.5C5.9639 45.5 5.9688 45.5 5.97369 45.5C5.97859 45.5 5.98348 45.5 5.98837 45.5C5.99327 45.5 5.99816 45.5 6.00305 45.5C6.00795 45.5 6.01284 45.5 6.01773 45.5C6.02262 45.5 6.02751 45.5 6.03239 45.5C6.03728 45.5 6.04217 45.5 6.04706 45.5C6.05194 45.5 6.05683 45.5 6.06172 45.5C6.0666 45.5 6.07148 45.5 6.07637 45.5C6.08125 45.5 6.08613 45.5 6.09101 45.5C6.09589 45.5 6.10077 45.5 6.10565 45.5C6.11053 45.5 6.11541 45.5 6.12029 45.5C6.12517 45.5 6.13004 45.5 6.13492 45.5C6.13979 45.5 6.14467 45.5 6.14954 45.5C6.15442 45.5 6.15929 45.5 6.16416 45.5C6.16903 45.5 6.1739 45.5 6.17877 45.5C6.18364 45.5 6.18851 45.5 6.19338 45.5C6.19824 45.5 6.20311 45.5 6.20798 45.5C6.21284 45.5 6.21771 45.5 6.22257 45.5C6.22743 45.5 6.2323 45.5 6.23716 45.5C6.24202 45.5 6.24688 45.5 6.25174 45.5C6.2566 45.5 6.26146 45.5 6.26631 45.5C6.27117 45.5 6.27603 45.5 6.28088 45.5C6.28574 45.5 6.29059 45.5 6.29545 45.5C6.3003 45.5 6.30515 45.5 6.31 45.5C6.31485 45.5 6.3197 45.5 6.32455 45.5C6.3294 45.5 6.33425 45.5 6.33909 45.5C6.34394 45.5 6.34879 45.5 6.35363 45.5C6.35847 45.5 6.36332 45.5 6.36816 45.5C6.373 45.5 6.37784 45.5 6.38268 45.5C6.38752 45.5 6.39236 45.5 6.3972 45.5C6.40204 45.5 6.40687 45.5 6.41171 45.5C6.41654 45.5 6.42138 45.5 6.42621 45.5C6.43104 45.5 6.43588 45.5 6.44071 45.5C6.44554 45.5 6.45037 45.5 6.45519 45.5C6.46002 45.5 6.46485 45.5 6.46968 45.5C6.4745 45.5 6.47933 45.5 6.48415 45.5C6.48897 45.5 6.4938 45.5 6.49862 45.5C6.50344 45.5 6.50826 45.5 6.51308 45.5C6.5179 45.5 6.52271 45.5 6.52753 45.5C6.53235 45.5 6.53716 45.5 6.54198 45.5C6.54679 45.5 6.5516 45.5 6.55641 45.5C6.56122 45.5 6.56603 45.5 6.57084 45.5C6.57565 45.5 6.58046 45.5 6.58527 45.5C6.59007 45.5 6.59488 45.5 6.59968 45.5C6.60448 45.5 6.60929 45.5 6.61409 45.5C6.61889 45.5 6.62369 45.5 6.62849 45.5C6.63329 45.5 6.63808 45.5 6.64288 45.5C6.64768 45.5 6.65247 45.5 6.65726 45.5C6.66206 45.5 6.66685 45.5 6.67164 45.5C6.67643 45.5 6.68122 45.5 6.68601 45.5C6.6908 45.5 6.69558 45.5 6.70037 45.5C6.70515 45.5 6.70994 45.5 6.71472 45.5C6.7195 45.5 6.72429 45.5 6.72907 45.5C6.73385 45.5 6.73862 45.5 6.7434 45.5C6.74818 45.5 6.75295 45.5 6.75773 45.5C6.7625 45.5 6.76728 45.5 6.77205 45.5C6.77682 45.5 6.78159 45.5 6.78636 45.5C6.79113 45.5 6.7959 45.5 6.80066 45.5C6.80543 45.5 6.81019 45.5 6.81496 45.5C6.81972 45.5 6.82448 45.5 6.82924 45.5C6.834 45.5 6.83876 45.5 6.84352 45.5C6.84828 45.5 6.85303 45.5 6.85779 45.5C6.86254 45.5 6.8673 45.5 6.87205 45.5C6.8768 45.5 6.88155 45.5 6.8863 45.5C6.89105 45.5 6.89579 45.5 6.90054 45.5C6.90529 45.5 6.91003 45.5 6.91477 45.5C6.91952 45.5 6.92426 45.5 6.929 45.5C6.93374 45.5 6.93848 45.5 6.94321 45.5C6.94795 45.5 6.95268 45.5 6.95742 45.5C6.96215 45.5 6.96689 45.5 6.97162 45.5C6.97635 45.5 6.98108 45.5 6.9858 45.5C6.99053 45.5 6.99526 45.5 6.99998 45.5C7.00471 45.5 7.00943 45.5 7.01415 45.5C7.01887 45.5 7.02359 45.5 7.02831 45.5C7.03303 45.5 7.03775 45.5 7.04246 45.5C7.04718 45.5 7.05189 45.5 7.0566 45.5C7.06132 45.5 7.06603 45.5 7.07074 45.5C7.07544 45.5 7.08015 45.5 7.08486 45.5C7.08956 45.5 7.09427 45.5 7.09897 45.5C7.10367 45.5 7.10837 45.5 7.11307 45.5C7.11777 45.5 7.12247 45.5 7.12717 45.5C7.13186 45.5 7.13656 45.5 7.14125 45.5C7.14594 45.5 7.15063 45.5 7.15532 45.5C7.16001 45.5 7.1647 45.5 7.16939 45.5C7.17407 45.5 7.17876 45.5 7.18344 45.5C7.18812 45.5 7.1928 45.5 7.19748 45.5C7.20216 45.5 7.20684 45.5 7.21152 45.5C7.21619 45.5 7.22087 45.5 7.22554 45.5C7.23021 45.5 7.23488 45.5 7.23955 45.5C7.24422 45.5 7.24889 45.5 7.25355 45.5C7.25822 45.5 7.26288 45.5 7.26755 45.5C7.27221 45.5 7.27687 45.5 7.28153 45.5C7.28619 45.5 7.29084 45.5 7.2955 45.5C7.30016 45.5 7.30481 45.5 7.30946 45.5C7.31411 45.5 7.31876 45.5 7.32341 45.5C7.32806 45.5 7.33271 45.5 7.33735 45.5C7.342 45.5 7.34664 45.5 7.35128 45.5C7.35592 45.5 7.36056 45.5 7.3652 45.5C7.36984 45.5 7.37447 45.5 7.37911 45.5C7.38374 45.5 7.38837 45.5 7.393 45.5C7.39763 45.5 7.40226 45.5 7.40689 45.5C7.41151 45.5 7.41614 45.5 7.42076 45.5C7.42538 45.5 7.43001 45.5 7.43463 45.5C7.43924 45.5 7.44386 45.5 7.44848 45.5C7.45309 45.5 7.45771 45.5 7.46232 45.5C7.46693 45.5 7.47154 45.5 7.47615 45.5C7.48076 45.5 7.48536 45.5 7.48997 45.5C7.49457 45.5 7.49918 45.5 7.50378 45.5C7.50838 45.5 7.51297 45.5 7.51757 45.5C7.52217 45.5 7.52676 45.5 7.53136 45.5C7.53595 45.5 7.54054 45.5 7.54513 45.5C7.54972 45.5 7.55431 45.5 7.55889 45.5C7.56348 45.5 7.56806 45.5 7.57264 45.5C7.57722 45.5 7.5818 45.5 7.58638 45.5C7.59096 45.5 7.59553 45.5 7.60011 45.5C7.60468 45.5 7.60925 45.5 7.61382 45.5C7.61839 45.5 7.62296 45.5 7.62752 45.5C7.63209 45.5 7.63665 45.5 7.64121 45.5C7.64578 45.5 7.65034 45.5 7.65489 45.5C7.65945 45.5 7.66401 45.5 7.66856 45.5C7.67311 45.5 7.67767 45.5 7.68222 45.5C7.68677 45.5 7.69131 45.5 7.69586 45.5C7.7004 45.5 7.70495 45.5 7.70949 45.5C7.71403 45.5 7.71857 45.5 7.72311 45.5C7.72764 45.5 7.73218 45.5 7.73671 45.5C7.74125 45.5 7.74578 45.5 7.75031 45.5C7.75484 45.5 7.75936 45.5 7.76389 45.5C7.76841 45.5 7.77294 45.5 7.77746 45.5C7.78198 45.5 7.7865 45.5 7.79101 45.5C7.79553 45.5 7.80004 45.5 7.80456 45.5C7.80907 45.5 7.81358 45.5 7.81809 45.5C7.82259 45.5 7.8271 45.5 7.8316 45.5C7.83611 45.5 7.84061 45.5 7.84511 45.5C7.84961 45.5 7.85411 45.5 7.8586 45.5C7.8631 45.5 7.86759 45.5 7.87208 45.5C7.87657 45.5 7.88106 45.5 7.88555 45.5C7.89003 45.5 7.89452 45.5 7.899 45.5C7.90348 45.5 7.90796 45.5 7.91244 45.5C7.91692 45.5 7.9214 45.5 7.92587 45.5C7.93034 45.5 7.93481 45.5 7.93928 45.5C7.94375 45.5 7.94822 45.5 7.95268 45.5C7.95715 45.5 7.96161 45.5 7.96607 45.5C7.97053 45.5 7.97499 45.5 7.97945 45.5C7.9839 45.5 7.98835 45.5 7.99281 45.5C7.99726 45.5 8.00171 45.5 8.00615 45.5C8.0106 45.5 8.01504 45.5 8.01949 45.5C8.02393 45.5 8.02837 45.5 8.03281 45.5C8.03724 45.5 8.04168 45.5 8.04611 45.5C8.05055 45.5 8.05498 45.5 8.05941 45.5C8.06383 45.5 8.06826 45.5 8.07268 45.5C8.07711 45.5 8.08153 45.5 8.08595 45.5C8.09037 45.5 8.09479 45.5 8.0992 45.5C8.10362 45.5 8.10803 45.5 8.11244 45.5C8.11685 45.5 8.12126 45.5 8.12566 45.5C8.13007 45.5 8.13447 45.5 8.13887 45.5C8.14327 45.5 8.14767 45.5 8.15207 45.5C8.15646 45.5 8.16085 45.5 8.16525 45.5C8.16964 45.5 8.17403 45.5 8.17841 45.5C8.1828 45.5 8.18718 45.5 8.19156 45.5C8.19595 45.5 8.20033 45.5 8.2047 45.5C8.20908 45.5 8.21345 45.5 8.21783 45.5C8.2222 45.5 8.22657 45.5 8.23093 45.5C8.2353 45.5 8.23967 45.5 8.24403 45.5C8.24839 45.5 8.25275 45.5 8.25711 45.5C8.26147 45.5 8.26582 45.5 8.27017 45.5C8.27453 45.5 8.27888 45.5 8.28322 45.5C8.28757 45.5 8.29192 45.5 8.29626 45.5C8.3006 45.5 8.30494 45.5 8.30928 45.5V44.5ZM11.773 20.2087H14.5379V19.2087H11.773V20.2087ZM19.2233 17.5891L23.1772 11.1577L22.3253 10.634L18.3714 17.0654L19.2233 17.5891ZM24.4362 6.70606V3.09758H23.4362V6.70606H24.4362ZM31.0103 5.50835L31.3247 6.94982L32.3017 6.73677L31.9874 5.2953L31.0103 5.50835ZM31.2625 10.9567L30.4015 14.3902L31.3715 14.6334L32.2325 11.1999L31.2625 10.9567ZM30.8865 14.0118H27.4113V15.0118H30.8865V14.0118ZM27.4113 15.0118H41.5334V14.0118H27.4113V15.0118ZM45.1348 20.9409H38.8794V21.9409H45.1348V20.9409ZM46.1773 28.563H38.8794V29.563H46.1773V28.563ZM44.9477 34.5035L44.5174 34.7793L45.057 35.6212L45.4873 35.3454L44.9477 34.5035ZM44.7496 34.7016L38.8418 35.1471L38.917 36.1443L44.8248 35.6988L44.7496 34.7016ZM41.6336 41.3122L30.1407 43.0027L30.2862 43.992L41.7791 42.3015L41.6336 41.3122ZM24.132 42.6231L19.8294 41.4221L19.5606 42.3853L23.8631 43.5863L24.132 42.6231ZM11.273 19.7087V41.5354H12.273V19.7087H11.273ZM17.0063 41.0354H11.773V42.0354H17.0063V41.0354ZM45.1348 21.4409C45.1348 21.9409 45.1343 21.9409 45.1339 21.9409C45.1337 21.9409 45.1333 21.9409 45.133 21.9409C45.1325 21.9409 45.132 21.9409 45.1315 21.9409C45.1305 21.9409 45.1297 21.9409 45.129 21.9409C45.1275 21.9409 45.1266 21.9409 45.1261 21.9408C45.1252 21.9408 45.1261 21.9408 45.1288 21.941C45.1343 21.9413 45.1467 21.9423 45.1651 21.9447C45.202 21.9496 45.2625 21.9604 45.3392 21.9839C45.4915 22.0306 45.71 22.128 45.9405 22.3337C46.3931 22.7376 46.9688 23.6321 47.068 25.6233L48.0668 25.5736C47.9589 23.4073 47.3184 22.223 46.6064 21.5876C46.2545 21.2736 45.9038 21.1111 45.6323 21.0279C45.4971 20.9864 45.3821 20.9647 45.2965 20.9534C45.2537 20.9477 45.218 20.9446 45.1908 20.9429C45.1771 20.9421 45.1656 20.9416 45.1562 20.9413C45.1515 20.9412 45.1473 20.9411 45.1438 20.941C45.142 20.941 45.1403 20.941 45.1388 20.941C45.1381 20.941 45.1374 20.941 45.1367 20.9409C45.1363 20.9409 45.1359 20.9409 45.1357 20.9409C45.1352 20.9409 45.1348 20.9409 45.1348 21.4409ZM47.068 25.6233C47.1415 27.0996 46.8095 27.8379 46.5344 28.1949C46.395 28.376 46.2589 28.4744 46.1687 28.5258C46.1231 28.5518 46.0883 28.5663 46.0695 28.5732C46.0601 28.5767 46.0548 28.5783 46.0543 28.5784C46.054 28.5785 46.055 28.5782 46.0572 28.5777C46.0583 28.5774 46.0598 28.577 46.0616 28.5766C46.0624 28.5764 46.0634 28.5761 46.0645 28.5759C46.065 28.5758 46.0656 28.5756 46.0661 28.5755C46.0664 28.5754 46.0669 28.5753 46.067 28.5753C46.0675 28.5752 46.0679 28.5751 46.1773 29.063C46.2867 29.5509 46.2872 29.5508 46.2876 29.5507C46.2878 29.5506 46.2883 29.5505 46.2886 29.5504C46.2893 29.5503 46.29 29.5501 46.2907 29.55C46.2921 29.5496 46.2937 29.5493 46.2953 29.5489C46.2986 29.5481 46.3022 29.5472 46.3063 29.5461C46.3143 29.5441 46.3239 29.5415 46.335 29.5382C46.357 29.5318 46.3847 29.5229 46.4173 29.5108C46.4824 29.4866 46.5671 29.4497 46.6639 29.3945C46.8587 29.2835 47.0992 29.1004 47.3267 28.8051C47.7855 28.2094 48.1485 27.2153 48.0668 25.5736L47.068 25.6233ZM1 17.437H6.38652V16.437H1V17.437ZM6.38652 17.437H9.0014V16.437H6.38652V17.437ZM5.88652 16.937V35.2002H6.88652V16.937H5.88652ZM5.88652 38.7638V41.8819H6.88652V38.7638H5.88652ZM19.8294 41.4221C18.9103 41.1655 17.9606 41.0354 17.0063 41.0354V42.0354C17.8697 42.0354 18.729 42.1531 19.5606 42.3853L19.8294 41.4221ZM30.1407 43.0027C28.1333 43.2979 26.0863 43.1686 24.132 42.6231L23.8631 43.5863C25.9522 44.1694 28.1404 44.3077 30.2862 43.992L30.1407 43.0027ZM44.3615 35.4624C45.8174 37.8262 44.3801 40.9082 41.6336 41.3122L41.7791 42.3015C45.2364 41.793 47.0456 37.9134 45.213 34.938L44.3615 35.4624ZM31.3247 6.94982C31.6131 8.27238 31.5918 9.64372 31.2625 10.9567L32.2325 11.1999C32.5993 9.73744 32.6229 8.20994 32.3017 6.73677L31.3247 6.94982ZM26.0337 1.5C28.4287 1.5 30.5001 3.16842 31.0103 5.50835L31.9874 5.2953C31.377 2.49598 28.8988 0.5 26.0337 0.5V1.5ZM14.5379 20.2087C16.4487 20.2087 18.2226 19.2169 19.2233 17.5891L18.3714 17.0654C17.5526 18.3972 16.1013 19.2087 14.5379 19.2087V20.2087ZM24.4362 3.09758C24.4362 2.21526 25.1514 1.5 26.0337 1.5V0.5C24.5991 0.5 23.4362 1.66297 23.4362 3.09758H24.4362ZM8.30928 45.5C10.499 45.5 12.273 43.7249 12.273 41.5354H11.273C11.273 43.1729 9.94642 44.5 8.30928 44.5V45.5ZM45.7873 29.3759C47.0866 30.9951 46.6956 33.3833 44.9477 34.5035L45.4873 35.3454C47.7355 33.9046 48.2385 30.8327 46.5673 28.7501L45.7873 29.3759ZM23.1772 11.1577C24.0004 9.81877 24.4362 8.2778 24.4362 6.70606H23.4362C23.4362 8.09289 23.0516 9.45257 22.3253 10.634L23.1772 11.1577ZM41.5334 15.0118C44.6915 15.0118 46.5403 18.569 44.7255 21.1536L45.544 21.7283C47.824 18.481 45.5012 14.0118 41.5334 14.0118V15.0118ZM12.273 19.7087C12.273 17.9018 10.8083 16.437 9.0014 16.437V17.437C10.256 17.437 11.273 18.4541 11.273 19.7087H12.273Z" fill="black"/>
</svg>
