<svg width="814" height="2573" viewBox="0 0 814 2573" fill="none" xmlns="http://www.w3.org/2000/svg">
<path fill-rule="evenodd" clip-rule="evenodd" d="M812.295 326.209L421.17 717.335L420.462 718.042L421.17 718.749L612.459 910.038L613.166 910.746L613.197 910.715L613.904 911.422L648.019 945.537L648.726 946.244L648.695 946.275L648.726 946.306L648.019 947.013L613.904 981.129L613.196 981.835L613.166 981.805L612.458 982.511L422.247 1172.72L421.54 1173.43L422.247 1174.14L648.019 1399.91L648.726 1400.62L648.386 1400.96L648.019 1401.32L647.679 1401.66L647.957 1401.94L648.386 1402.37L648.664 1402.65L647.957 1403.36L423.263 1628.05L422.556 1628.76L423.263 1629.46L650.112 1856.31L650.819 1857.02L650.112 1857.73L615.997 1891.84L615.29 1892.55L615.259 1892.52L614.552 1893.23L-64.5142 2572.29L-65.2214 2573L-65.9285 2572.29L-100.044 2538.18L-100.751 2537.47L-100.044 2536.76L252.563 2184.16L253.27 2183.45L252.563 2182.74L159.876 2090.06L159.168 2089.35L159.248 2089.27L159.107 2089.13L159.814 2088.42L256.714 1991.52L257.421 1990.81L256.714 1990.11L159.667 1893.06L158.96 1892.35L158.253 1893.06L-68.7632 2120.08L-69.4704 2120.78L-70.1775 2120.08L-104.293 2085.96L-105 2085.25L-104.293 2084.55L122.724 1857.53L123.431 1856.82L122.724 1856.12L-68.5037 1664.89L-69.2109 1664.18L-69.2662 1664.24L-69.9733 1663.53L-104.089 1629.41L-104.796 1628.71L-104.089 1628L122.619 1401.29L123.326 1400.59L122.619 1399.88L-103.475 1173.78L-104.183 1173.08L-104.133 1173.03L-104.15 1173.01L-104.84 1172.32L-104.857 1172.3L-104.15 1171.6L121.541 945.905L122.248 945.198L121.541 944.49L-104.089 718.861L-104.796 718.153L-104.715 718.073L-104.796 717.992L-104.089 717.285L121.572 491.625L122.279 490.918L121.572 490.211L-101.128 267.511L-101.835 266.804L-101.128 266.097L-67.0126 231.981L-66.3055 231.274L-65.5984 231.981L157.101 454.681L157.808 455.388L158.516 454.681L335.61 277.586H337.024L158.516 456.095L157.808 456.802L157.101 456.095L-66.3055 232.688L-100.421 266.804L122.986 490.211L123.693 490.918L122.986 491.625L-103.381 717.992L-103.301 718.073L-103.382 718.153L122.955 944.49L123.662 945.198L122.955 945.905L-103.443 1172.3L-103.426 1172.32L-102.719 1173.03L-102.769 1173.08L124.033 1399.88L124.74 1400.59L124.033 1401.29L-103.381 1628.71L-69.2661 1662.82L-69.2109 1662.77L-68.5037 1663.47L124.138 1856.12L124.845 1856.82L124.138 1857.53L-103.586 2085.25L-69.4703 2119.37L158.253 1891.65L158.96 1890.94L159.667 1891.65L258.128 1990.11L258.835 1990.81L258.128 1991.52L160.521 2089.13L160.662 2089.27L160.582 2089.35L253.977 2182.74L254.684 2183.45L253.977 2184.16L-99.3367 2537.47L-65.2214 2571.59L614.552 1891.81L615.259 1891.11L615.29 1891.14L649.405 1857.02L421.849 1629.46L421.142 1628.76L421.849 1628.05L647.25 1402.65L646.972 1402.37L646.265 1401.66L646.972 1400.96L647.312 1400.62L420.833 1174.14L420.126 1173.43L420.833 1172.72L612.459 981.097L613.166 980.39L613.197 980.421L647.312 946.306L647.281 946.275L647.312 946.244L613.197 912.129L613.166 912.16L612.459 911.453L419.755 718.749L419.048 718.042L419.755 717.335L811.588 325.502L777.473 291.387L385.64 683.22L384.933 683.927L384.226 683.22L324.527 623.521L323.82 622.814L324.527 622.107L614.36 332.274L580.245 298.159L290.412 587.992L289.705 588.699L288.998 587.992L192.631 491.625L191.924 490.918L192.631 490.211L405.255 277.586H406.669L194.045 490.211L193.338 490.918L194.045 491.625L288.998 586.578L289.705 587.285L290.412 586.578L579.538 297.452L580.245 296.745L580.952 297.452L615.067 331.567L615.775 332.274L615.067 332.981L325.942 622.107L325.235 622.814L325.942 623.521L384.226 681.806L384.933 682.513L385.64 681.806L776.766 290.68L777.473 289.973L778.18 290.68L812.295 324.795L813.002 325.502L812.295 326.209ZM613.645 0.448242L613.197 0L612.748 0.448242H613.645ZM-34.3885 1627.94L-35.0956 1628.65L-34.3885 1629.36L158.253 1822L158.96 1822.71L159.667 1822L254.993 1726.67L255.7 1725.97L254.993 1725.26L160.583 1630.85L160.663 1630.77L160.521 1630.63L256.945 1534.21L257.652 1533.5L256.945 1532.79L159.562 1435.41L158.855 1434.7L158.148 1435.41L-34.3885 1627.94ZM159.168 1630.85L159.875 1631.56L253.579 1725.26L254.286 1725.97L253.579 1726.67L159.667 1820.59L158.96 1821.29L158.253 1820.59L-32.9742 1629.36L-33.6814 1628.65L-32.9742 1627.94L158.148 1436.82L158.855 1436.12L159.562 1436.82L255.531 1532.79L256.238 1533.5L255.531 1534.21L159.814 1629.92L159.107 1630.63L159.248 1630.77L159.168 1630.85ZM193.783 1856.12L193.075 1856.82L193.783 1857.53L292.243 1955.99L292.95 1956.7L293.658 1955.99L388.983 1860.67L389.69 1859.96L388.983 1859.25L290.522 1760.79L289.815 1760.08L289.108 1760.79L193.783 1856.12ZM229.379 2088.5L228.672 2089.21L229.379 2089.91L288.092 2148.63L288.799 2149.33L289.506 2148.63L352.371 2085.76L353.078 2085.06L352.371 2084.35L293.658 2025.64L292.951 2024.93L292.243 2025.64L229.379 2088.5ZM327.773 1990.11L327.066 1990.81L327.773 1991.52L386.486 2050.23L387.193 2050.94L387.9 2050.23L580.437 1857.7L581.144 1856.99L580.437 1856.28L387.733 1663.58L387.026 1662.87L386.319 1663.58L324.638 1725.26L323.931 1725.97L324.638 1726.67L456.794 1858.83L456.313 1859.31L455.606 1860.02L456.313 1860.73L456.733 1861.15L327.773 1990.11ZM326.052 1726.67L457.501 1858.12L458.209 1858.83L457.727 1859.31L457.501 1859.54L457.02 1860.02L457.44 1860.44L457.727 1860.73L458.147 1861.15L457.44 1861.85L329.187 1990.11L328.48 1990.81L329.187 1991.52L386.486 2048.82L387.193 2049.53L387.9 2048.82L579.023 1857.7L579.73 1856.99L579.023 1856.28L387.733 1664.99L387.026 1664.29L386.319 1664.99L326.052 1725.26L325.345 1725.97L326.052 1726.67ZM386.319 1593.93L387.026 1594.64L387.733 1593.93L579.359 1402.31L580.066 1401.6L579.359 1400.89L386.718 1208.25L386.011 1207.55L385.303 1208.25L324.669 1268.89L323.962 1269.59L324.669 1270.3L456.794 1402.43L456.653 1402.57L456.733 1402.65L326.59 1532.79L325.883 1533.5L326.59 1534.21L386.319 1593.93ZM458.209 1402.43L457.501 1401.72L326.083 1270.3L325.376 1269.59L326.083 1268.89L385.303 1209.67L386.011 1208.96L386.718 1209.67L577.945 1400.89L578.652 1401.6L577.945 1402.31L387.733 1592.52L387.026 1593.23L386.319 1592.52L328.004 1534.21L327.297 1533.5L328.004 1532.79L457.44 1403.36L458.147 1402.65L458.067 1402.57L458.209 1402.43ZM292.475 1568.32L291.768 1567.61L291.06 1568.32L229.379 1630L228.672 1630.71L229.379 1631.42L289.108 1691.15L289.815 1691.85L290.522 1691.15L352.204 1629.46L352.911 1628.76L352.204 1628.05L292.475 1568.32ZM291.06 1498.68L291.768 1499.38L292.475 1498.68L387.936 1403.21L388.643 1402.51L387.936 1401.8L290.553 1304.42L289.846 1303.71L289.139 1304.42L193.678 1399.88L192.971 1400.59L193.678 1401.29L291.06 1498.68ZM158.148 1365.76L158.855 1366.47L159.562 1365.76L255.024 1270.3L255.731 1269.59L255.024 1268.89L160.583 1174.45L160.663 1174.37L160.521 1174.23L255.899 1078.85L256.606 1078.14L255.899 1077.43L158.485 980.02L157.778 979.313L157.071 980.02L-34.5552 1171.65L-35.2623 1172.35L-34.5552 1173.06L158.148 1365.76ZM159.168 1174.45L159.875 1175.15L253.61 1268.89L254.317 1269.59L253.61 1270.3L159.562 1364.35L158.855 1365.06L158.148 1364.35L-33.141 1173.06L-33.8481 1172.35L-33.141 1171.65L157.071 981.434L157.778 980.727L158.485 981.434L254.484 1077.43L255.191 1078.14L254.484 1078.85L159.814 1173.52L159.107 1174.23L159.248 1174.37L159.168 1174.45ZM229.379 1173.6L228.672 1174.3L229.379 1175.01L289.139 1234.77L289.846 1235.48L290.553 1234.77L351.188 1174.14L351.895 1173.43L351.188 1172.72L291.428 1112.96L290.721 1112.26L290.014 1112.96L229.379 1173.6ZM422.679 981.835L423.386 981.128L457.501 947.013L458.201 946.313L458.209 946.306L458.147 946.244L457.501 945.599L422.617 910.715L325.911 814.008L325.204 813.301L325.911 812.594L384.226 754.279L384.933 753.572L385.64 754.279L576.929 945.568L577.636 946.275L576.929 946.982L386.718 1137.19L386.011 1137.9L385.303 1137.19L326.958 1078.85L326.25 1078.14L326.958 1077.43L421.911 982.481L422.617 981.774L422.679 981.835ZM422.679 980.421L456.794 946.306L421.91 911.422L324.497 814.008L323.79 813.301L324.497 812.594L384.226 752.865L384.933 752.157L385.64 752.865L578.343 945.568L579.05 946.275L578.343 946.982L386.718 1138.61L386.011 1139.31L385.303 1138.61L325.543 1078.85L324.836 1078.14L325.543 1077.43L421.91 981.067L422.617 980.36L422.679 980.421ZM290.381 848.123L289.674 847.416L288.967 848.123L192.6 944.49L191.893 945.198L192.6 945.905L290.014 1043.32L290.721 1044.03L291.428 1043.32L387.795 946.951L388.502 946.244L387.795 945.537L290.381 848.123ZM350.111 718.749L350.818 718.042L350.111 717.335L290.412 657.637L289.705 656.93L288.998 657.637L229.269 717.366L228.562 718.073L229.269 718.78L288.967 778.479L289.674 779.186L290.381 778.479L350.111 718.749ZM253.468 622.107L158.516 527.154L157.808 526.447L157.101 527.154L-33.1102 717.366L-33.8173 718.073L-33.1102 718.78L157.071 908.961L157.778 909.668L158.485 908.961L253.438 814.008L254.145 813.301L253.438 812.594L195.153 754.31L194.446 753.603L194.121 753.928L193.414 753.22L159.299 719.105L158.592 718.398L159.299 717.691L253.468 623.521L254.175 622.814L253.468 622.107ZM194.446 752.188L194.121 752.513L160.006 718.398L254.883 623.521L255.59 622.814L254.883 622.107L158.516 525.74L157.808 525.033L157.101 525.74L-34.5244 717.366L-35.2315 718.073L-34.5244 718.78L157.071 910.375L157.778 911.082L158.485 910.375L254.852 814.008L255.559 813.301L254.852 812.594L195.153 752.896L194.446 752.188ZM292.95 1955.28L293.658 1954.58L387.569 1860.67L388.276 1859.96L387.569 1859.25L290.522 1762.2L289.815 1761.5L289.108 1762.2L195.197 1856.12L194.49 1856.82L195.197 1857.53L292.243 1954.58L292.95 1955.28ZM230.086 2089.21L230.793 2089.91L288.092 2147.21L288.799 2147.92L289.506 2147.21L350.957 2085.76L351.664 2085.06L350.957 2084.35L293.658 2027.05L292.951 2026.34L292.243 2027.05L230.793 2088.5L230.086 2089.21ZM291.768 1569.03L291.06 1569.73L230.793 1630L230.086 1630.71L230.793 1631.42L289.108 1689.73L289.815 1690.44L290.522 1689.73L350.79 1629.46L351.497 1628.76L350.79 1628.05L292.475 1569.73L291.768 1569.03ZM387.229 1402.51L386.522 1401.8L290.553 1305.83L289.846 1305.12L289.139 1305.83L195.092 1399.88L194.385 1400.59L195.092 1401.29L291.06 1497.26L291.768 1497.97L292.475 1497.26L386.522 1403.21L387.229 1402.51ZM230.086 1174.3L230.793 1175.01L289.139 1233.36L289.846 1234.07L290.553 1233.36L349.774 1174.14L350.481 1173.43L349.774 1172.72L291.428 1114.38L290.721 1113.67L290.014 1114.38L230.793 1173.6L230.086 1174.3ZM289.674 848.83L288.967 849.538L194.014 944.49L193.307 945.198L194.014 945.905L290.014 1041.9L290.721 1042.61L291.428 1041.9L386.381 946.951L387.088 946.244L386.381 945.537L290.381 849.538L289.674 848.83ZM289.705 658.344L288.998 659.051L230.683 717.366L229.976 718.073L230.683 718.78L288.967 777.064L289.674 777.771L290.381 777.064L348.696 718.749L349.403 718.042L348.696 717.335L290.412 659.051L289.705 658.344Z" fill="url(#paint0_linear_218_30)"/>
<defs>
<linearGradient id="paint0_linear_218_30" x1="272.91" y1="2573" x2="272.91" y2="0" gradientUnits="userSpaceOnUse">
<stop stop-color="#2C6A13" stop-opacity="0"/>
<stop offset="0.25" stop-color="#2C6A13" stop-opacity="0.21"/>
<stop offset="0.5" stop-color="#2C6A13" stop-opacity="0.5"/>
<stop offset="0.708333" stop-color="#2C6A13" stop-opacity="0.15"/>
<stop offset="1" stop-color="#2C6A13" stop-opacity="0"/>
</linearGradient>
</defs>
</svg>
