<svg width="752" height="2573" viewBox="0 0 752 2573" fill="none" xmlns="http://www.w3.org/2000/svg">
<path fill-rule="evenodd" clip-rule="evenodd" d="M807.408 430.035L523.505 713.906L522.798 714.613L523.505 715.32L713.827 905.621L714.534 906.328L714.565 906.297L715.273 907.004L749.21 940.937L749.916 941.644L749.886 941.675L749.916 941.706L749.209 942.412L715.272 976.346L714.565 977.053L714.534 977.022L713.827 977.729L524.578 1166.96L523.871 1167.66L524.578 1168.37L749.209 1392.98L749.916 1393.68L749.582 1394.02L749.209 1394.39L748.875 1394.73L749.148 1395L749.582 1395.43L749.855 1395.71L749.148 1396.41L525.588 1619.95L524.881 1620.65L525.588 1621.36L751.292 1847.04L751.999 1847.75L751.292 1848.45L717.355 1882.39L716.648 1883.09L716.617 1883.06L715.91 1883.77L525.756 2073.9L525.049 2074.61L525.756 2075.32L794.287 2343.82L794.994 2344.53L794.287 2345.24L760.351 2379.17L759.643 2379.88L758.936 2379.17L490.405 2110.66L489.698 2109.96L488.991 2110.66L427.857 2171.79L427.15 2172.5L427.857 2173.21L790.888 2536.2L791.595 2536.91L790.888 2537.61L756.951 2571.55L756.244 2572.26L755.537 2571.55L263.527 2079.59L262.819 2078.88L262.896 2078.8L262.755 2078.66L263.462 2077.96L359.871 1981.56L360.578 1980.85L359.871 1980.14L263.319 1883.6L262.612 1882.89L261.905 1883.6L86.3635 2059.12L85.6564 2059.83L84.9494 2059.12L51.0123 2025.19L50.3052 2024.48L51.0123 2023.78L226.554 1848.25L227.261 1847.55L226.554 1846.84L36.295 1656.6L35.5878 1655.89L35.528 1655.95L34.8209 1655.25L0.883911 1621.31L0.176819 1620.6L0.883911 1619.9L226.446 1394.36L227.153 1393.65L226.446 1392.95L1.4939 1168.02L0.786743 1167.31L0.836182 1167.26L0.822327 1167.25L0.129089 1166.56L0.115234 1166.54L0.822327 1165.84L225.374 941.31L226.081 940.603L225.374 939.896L0.883789 715.431L0.176636 714.724L0.256836 714.644L0.21228 714.599L0.919434 713.892L225.429 489.386L226.136 488.678L225.429 487.971L3.82965 266.397L3.12256 265.69L3.82965 264.983L37.7667 231.05L38.4738 230.343L39.1808 231.05L260.778 452.623L261.485 453.33L262.192 452.622L438.399 276.418H439.814L262.192 454.037L261.485 454.744L260.778 454.037L38.4738 231.757L4.53687 265.69L226.843 487.971L227.55 488.678L226.843 489.386L1.62653 714.599L1.67108 714.644L1.59094 714.724L226.788 939.896L227.495 940.603L226.788 941.31L1.5296 1166.54L1.54327 1166.56L2.25049 1167.26L2.20105 1167.31L227.86 1392.95L228.567 1393.65L227.86 1394.36L1.59113 1620.6L35.528 1654.54L35.5878 1654.48L36.2949 1655.19L227.968 1846.84L228.675 1847.55L227.968 1848.25L51.7195 2024.48L85.6565 2058.42L261.905 1882.19L262.612 1881.48L263.319 1882.19L361.285 1980.14L361.992 1980.85L361.285 1981.56L264.169 2078.66L264.31 2078.8L264.234 2078.88L756.244 2570.84L790.181 2536.91L426.443 2173.21L425.736 2172.5L426.443 2171.79L488.991 2109.25L489.698 2108.54L490.405 2109.25L759.643 2378.46L793.58 2344.53L524.342 2075.32L523.635 2074.61L524.342 2073.9L715.91 1882.36L716.617 1881.65L716.648 1881.68L750.585 1847.75L524.174 1621.36L523.467 1620.65L524.174 1619.95L748.441 1395.71L748.168 1395.43L747.46 1394.73L748.168 1394.02L748.502 1393.68L523.164 1168.37L522.456 1167.66L523.164 1166.96L713.827 976.315L714.534 975.608L714.565 975.639L748.502 941.705L748.471 941.675L748.502 941.644L714.565 907.711L714.535 907.742L713.827 907.035L522.091 715.32L521.384 714.613L522.091 713.906L806.701 429.328L772.764 395.395L488.154 679.973L487.447 680.68L486.74 679.973L427.341 620.581L426.634 619.874L427.341 619.167L770.129 276.418H771.543L428.755 619.167L428.048 619.874L428.755 620.581L486.74 678.559L487.447 679.266L488.154 678.559L772.057 394.688L772.764 393.981L773.471 394.688L807.408 428.621L808.115 429.328L807.408 430.035ZM783.513 264.449L805.91 242.055L806.617 241.348L805.91 240.641L783.513 218.248V219.662L805.202 241.348L783.513 263.035V264.449ZM702.255 276.418H700.841L393.404 583.82L392.697 584.527L391.99 583.82L297.544 489.384L296.836 488.677L297.543 487.969L509.098 276.418H507.684L296.129 487.97L295.422 488.677L296.129 489.384L391.99 585.234L392.697 585.941L393.404 585.234L702.255 276.418ZM715.012 0.701904L714.565 0.255615L714.119 0.701904H715.012ZM70.2319 1619.84L69.5247 1620.55L70.2319 1621.25L261.905 1812.91L262.612 1813.61L263.319 1812.91L358.163 1718.07L358.87 1717.37L358.163 1716.66L264.231 1622.74L264.31 1622.66L264.169 1622.52L360.105 1526.59L360.813 1525.88L360.105 1525.18L263.211 1428.29L262.504 1427.59L261.797 1428.29L70.2319 1619.84ZM262.816 1622.74L263.523 1623.44L356.749 1716.66L357.456 1717.37L356.749 1718.07L263.319 1811.49L262.612 1812.2L261.905 1811.49L71.6461 1621.25L70.939 1620.55L71.6461 1619.84L261.797 1429.71L262.504 1429L263.211 1429.71L358.691 1525.18L359.398 1525.88L358.691 1526.59L263.462 1621.81L262.755 1622.52L262.896 1622.66L262.816 1622.74ZM297.256 1846.84L296.549 1847.55L297.256 1848.25L395.222 1946.21L395.929 1946.92L396.636 1946.21L491.481 1851.38L492.188 1850.67L491.481 1849.96L393.514 1752.01L392.807 1751.3L392.1 1752.01L297.256 1846.84ZM332.674 2078.03L331.966 2078.74L332.674 2079.45L391.092 2137.86L391.799 2138.57L392.506 2137.86L455.054 2075.32L455.761 2074.61L455.054 2073.9L396.636 2015.49L395.929 2014.78L395.222 2015.49L332.674 2078.03ZM430.573 1980.14L429.866 1980.85L430.573 1981.56L488.991 2039.97L489.698 2040.68L490.405 2039.97L681.973 1848.42L682.681 1847.72L681.973 1847.01L490.237 1655.29L489.53 1654.59L488.823 1655.29L427.451 1716.66L426.744 1717.37L427.451 1718.07L558.941 1849.55L558.466 1850.02L557.759 1850.73L558.466 1851.44L558.88 1851.85L430.573 1980.14ZM428.865 1718.07L559.648 1848.84L560.355 1849.55L559.88 1850.02L559.648 1850.26L559.173 1850.73L559.587 1851.14L559.88 1851.44L560.294 1851.85L559.587 1852.56L431.987 1980.14L431.28 1980.85L431.987 1981.56L488.991 2038.56L489.698 2039.26L490.405 2038.56L680.559 1848.42L681.266 1847.72L680.559 1847.01L490.237 1656.71L489.53 1656L488.823 1656.71L428.865 1716.66L428.158 1717.37L428.865 1718.07ZM488.823 1586.01L489.53 1586.72L490.237 1586.01L680.901 1395.37L681.608 1394.66L680.901 1393.96L489.227 1202.3L488.519 1201.6L487.812 1202.3L427.482 1262.63L426.775 1263.34L427.482 1264.04L558.941 1395.49L558.8 1395.63L558.879 1395.71L429.394 1525.18L428.686 1525.88L429.394 1526.59L488.823 1586.01ZM560.355 1395.49L559.648 1394.78L428.896 1264.04L428.189 1263.34L428.896 1262.63L487.812 1203.72L488.519 1203.01L489.227 1203.72L679.487 1393.96L680.194 1394.66L679.487 1395.37L490.237 1584.6L489.53 1585.31L488.823 1584.6L430.808 1526.59L430.101 1525.88L430.808 1525.18L559.587 1396.41L560.294 1395.71L560.215 1395.63L560.355 1395.49ZM395.457 1560.52L394.75 1559.82L394.042 1560.52L332.671 1621.89L331.963 1622.6L332.671 1623.3L392.1 1682.73L392.807 1683.43L393.514 1682.73L454.886 1621.36L455.593 1620.65L454.886 1619.95L395.457 1560.52ZM394.043 1491.24L394.75 1491.95L395.457 1491.24L490.439 1396.27L491.146 1395.57L490.439 1394.86L393.545 1297.98L392.838 1297.27L392.131 1297.98L297.148 1392.95L296.441 1393.65L297.148 1394.36L394.043 1491.24ZM261.797 1359.01L262.504 1359.72L263.211 1359.01L358.194 1264.04L358.901 1263.34L358.194 1262.63L264.231 1168.68L264.31 1168.6L264.169 1168.46L359.064 1073.57L359.771 1072.86L359.064 1072.16L262.139 975.243L261.432 974.536L260.725 975.243L70.0612 1165.89L69.3539 1166.59L70.0612 1167.3L261.797 1359.01ZM262.816 1168.68L263.523 1169.38L356.78 1262.63L357.487 1263.34L356.78 1264.04L263.211 1357.6L262.504 1358.31L261.797 1357.6L71.4753 1167.3L70.7682 1166.59L71.4753 1165.89L260.725 976.657L261.432 975.95L262.139 976.657L357.65 1072.16L358.357 1072.86L357.65 1073.57L263.462 1167.75L262.755 1168.46L262.895 1168.6L262.816 1168.68ZM332.671 1167.83L331.964 1168.53L332.671 1169.24L392.131 1228.7L392.838 1229.4L393.545 1228.7L453.875 1168.37L454.583 1167.66L453.875 1166.96L394.415 1107.5L393.708 1106.8L393.001 1107.5L332.671 1167.83ZM525.004 977.053L525.711 976.345L559.648 942.413L560.355 941.706L560.294 941.644L559.648 940.998L524.943 906.297L428.725 810.09L428.018 809.383L428.725 808.676L486.74 750.668L487.447 749.96L488.154 750.668L678.476 940.968L679.183 941.675L678.476 942.382L489.227 1131.61L488.519 1132.32L487.812 1131.61L429.766 1073.57L429.059 1072.86L429.766 1072.16L524.236 977.699L524.943 976.991L525.004 977.053ZM525.004 975.639L558.941 941.706L524.236 907.004L427.311 810.09L426.603 809.383L427.311 808.676L486.74 749.253L487.447 748.546L488.154 749.253L679.89 940.968L680.598 941.675L679.89 942.382L489.227 1133.02L488.519 1133.73L487.812 1133.02L428.352 1073.57L427.645 1072.86L428.352 1072.16L524.236 976.284L524.943 975.577L525.004 975.639ZM393.374 844.023L392.667 843.316L391.96 844.023L296.076 939.896L295.369 940.603L296.076 941.31L393.001 1038.22L393.708 1038.93L394.415 1038.22L490.299 942.351L491.006 941.644L490.299 940.937L393.374 844.023ZM452.803 715.32L453.51 714.613L452.803 713.906L393.404 654.514L392.697 653.807L391.99 654.514L332.561 713.937L331.854 714.644L332.561 715.351L391.96 774.743L392.667 775.45L393.374 774.743L452.803 715.32ZM356.639 619.167L262.194 524.733L261.487 524.026L260.78 524.733L71.5397 713.97L70.8326 714.677L71.5397 715.385L260.725 904.548L261.432 905.256L262.139 904.548L356.608 810.09L357.315 809.383L356.608 808.676L298.624 750.698L297.917 749.991L297.593 750.315L296.886 749.607L262.949 715.675L262.242 714.967L262.949 714.26L356.639 620.581L357.346 619.874L356.639 619.167ZM297.917 748.577L297.593 748.9L263.656 714.967L358.053 620.581L358.76 619.874L358.053 619.167L262.194 523.319L261.487 522.612L260.78 523.319L70.1255 713.97L69.4184 714.678L70.1256 715.385L260.725 905.963L261.432 906.67L262.139 905.963L358.023 810.09L358.73 809.383L358.023 808.676L298.624 749.284L297.917 748.577ZM395.929 1945.5L396.636 1944.8L490.067 1851.38L490.774 1850.67L490.067 1849.96L393.514 1753.42L392.807 1752.71L392.1 1753.42L298.67 1846.84L297.963 1847.55L298.67 1848.25L395.222 1944.8L395.929 1945.5ZM333.381 2078.74L334.088 2079.45L391.092 2136.44L391.799 2137.15L392.506 2136.44L453.64 2075.32L454.347 2074.61L453.64 2073.9L396.636 2016.9L395.929 2016.2L395.222 2016.9L334.088 2078.03L333.381 2078.74ZM394.75 1561.23L394.042 1561.94L334.085 1621.89L333.378 1622.6L334.085 1623.3L392.1 1681.31L392.807 1682.02L393.514 1681.31L453.472 1621.36L454.179 1620.65L453.472 1619.95L395.457 1561.94L394.75 1561.23ZM489.732 1395.57L489.025 1394.86L393.545 1299.39L392.838 1298.68L392.131 1299.39L298.563 1392.95L297.856 1393.65L298.563 1394.36L394.042 1489.83L394.75 1490.54L395.457 1489.83L489.025 1396.27L489.732 1395.57ZM333.378 1168.53L334.085 1169.24L392.131 1227.28L392.838 1227.99L393.545 1227.28L452.461 1168.37L453.168 1167.66L452.461 1166.96L394.415 1108.92L393.708 1108.21L393.001 1108.92L334.085 1167.83L333.378 1168.53ZM392.667 844.73L391.96 845.438L297.49 939.896L296.783 940.603L297.49 941.31L393.001 1036.81L393.708 1037.52L394.415 1036.81L488.884 942.351L489.591 941.644L488.884 940.937L393.374 845.438L392.667 844.73ZM392.697 655.221L391.99 655.928L333.975 713.937L333.268 714.644L333.975 715.351L391.96 773.329L392.667 774.036L393.374 773.329L451.389 715.32L452.096 714.613L451.389 713.906L393.404 655.928L392.697 655.221Z" fill="url(#paint0_linear_218_50)"/>
<defs>
<linearGradient id="paint0_linear_218_50" x1="375.986" y1="2560.05" x2="375.986" y2="0.255377" gradientUnits="userSpaceOnUse">
<stop stop-color="#2C6A13" stop-opacity="0"/>
<stop offset="0.276042" stop-color="#2C6A13" stop-opacity="0.21"/>
<stop offset="0.473958" stop-color="#2C6A13" stop-opacity="0.5"/>
<stop offset="0.729167" stop-color="#2C6A13" stop-opacity="0.15"/>
<stop offset="0.942708" stop-color="#2C6A13" stop-opacity="0"/>
</linearGradient>
</defs>
</svg>
