<svg width="261" height="1361" viewBox="0 0 261 1361" fill="none" xmlns="http://www.w3.org/2000/svg">
<path fill-rule="evenodd" clip-rule="evenodd" d="M260.293 187.23L68.5541 378.969L67.847 379.676L68.5541 380.384L169.035 480.865L169.742 481.572L169.759 481.555L170.466 482.262L187.838 499.635L188.545 500.342L188.529 500.359L188.545 500.375L187.838 501.082L170.466 518.454L169.758 519.161L169.742 519.145L169.035 519.852L69.124 619.764L68.4169 620.471L69.124 621.178L187.838 739.892L188.545 740.599L187.992 741.153L188.512 741.673L187.805 742.38L69.661 860.525L68.9539 861.232L69.661 861.939L188.945 981.223L189.652 981.93L188.945 982.637L171.573 1000.01L170.865 1000.72L170.849 1000.7L170.142 1001.41L-188.259 1359.81L-188.966 1360.52L-189.673 1359.81L-207.046 1342.44L-207.753 1341.73L-207.046 1341.02L-21.2658 1155.24L-20.5587 1154.54L-21.2658 1153.83L-69.6093 1105.48L-70.3165 1104.78L-70.2744 1104.74L-70.3491 1104.66L-69.6421 1103.95L-19.0709 1053.38L-18.3638 1052.68L-19.0709 1051.97L-69.7196 1001.32L-70.4267 1000.61L-71.1338 1001.32L-190.506 1120.69L-191.213 1121.4L-191.92 1120.69L-209.293 1103.32L-210 1102.61L-209.293 1101.9L-89.9206 982.533L-89.2135 981.826L-89.9206 981.119L-190.369 880.67L-191.076 879.963L-191.105 879.992L-191.812 879.285L-209.185 861.913L-209.892 861.206L-209.185 860.499L-89.9759 741.29L-89.2688 740.583L-89.9759 739.876L-208.861 620.991L-209.568 620.284L-209.541 620.258L-209.925 619.874L-209.217 619.167L-90.5459 500.496L-89.8388 499.789L-90.5459 499.081L-209.185 380.443L-209.892 379.735L-209.849 379.693L-209.892 379.65L-209.185 378.943L-90.5294 260.288L-89.8223 259.581L-90.5294 258.874L-207.619 141.784L-208.326 141.077L-207.619 140.37L-190.247 122.997L-189.539 122.29L-188.832 122.997L-71.7426 240.087L-71.0355 240.794L-70.3283 240.087L22.98 146.779H24.3942L-70.3283 241.501L-71.0355 242.208L-71.7426 241.501L-189.539 123.704L-206.912 141.077L-89.1152 258.874L-88.4081 259.581L-89.1152 260.288L-208.478 379.65L-208.435 379.693L-208.477 379.736L-89.1317 499.081L-88.4246 499.789L-89.1317 500.496L-208.51 619.874L-208.127 620.258L-208.153 620.284L-88.5617 739.876L-87.8546 740.583L-88.5617 741.29L-208.478 861.206L-191.105 878.578L-191.076 878.549L-190.369 879.256L-88.5064 981.119L-87.7993 981.826L-88.5064 982.533L-208.586 1102.61L-191.213 1119.98L-71.1338 999.905L-70.4267 999.198L-69.7196 999.905L-17.6566 1051.97L-16.9496 1052.68L-17.6566 1053.38L-68.9347 1104.66L-68.86 1104.74L-68.9022 1104.78L-19.8516 1153.83L-19.1445 1154.54L-19.8516 1155.24L-206.339 1341.73L-188.966 1359.1L170.142 999.994L170.85 999.286L170.866 999.302L188.238 981.93L68.2468 861.939L67.5397 861.232L68.2468 860.525L187.098 741.673L186.577 741.153L187.131 740.599L67.7098 621.178L67.0027 620.471L67.7098 619.764L169.035 518.438L169.742 517.731L169.758 517.747L187.131 500.375L187.115 500.359L187.131 500.342L169.759 482.97L169.742 482.986L169.035 482.279L67.1399 380.384L66.4328 379.676L67.1399 378.969L259.586 186.523L242.213 169.151L49.7673 361.597L49.0602 362.304L48.3531 361.597L16.7868 330.031L16.0797 329.323L16.7868 328.616L149.492 195.911L132.12 178.538L-0.585754 311.244L-1.29288 311.951L-1.99997 311.244L-52.9557 260.288L-53.6628 259.581L-52.9557 258.874L59.1395 146.779H60.5537L-51.5415 258.874L-52.2486 259.581L-51.5415 260.288L-1.99997 309.829L-1.29288 310.536L-0.585754 309.829L131.413 177.831L132.12 177.124L132.827 177.831L150.199 195.204L150.907 195.911L150.199 196.618L18.201 328.616L17.4939 329.323L18.201 330.031L48.3531 360.182L49.0602 360.89L49.7673 360.182L241.506 168.444L242.213 167.737L242.92 168.444L260.293 185.816L261 186.523L260.293 187.23ZM169.996 0.237183L169.759 0L169.521 0.237183H169.996ZM-172.996 860.469L-173.703 861.177L-172.996 861.884L-71.1338 963.746L-70.4267 964.453L-69.7195 963.746L-19.3146 913.341L-18.6075 912.634L-19.3146 911.927L-68.9021 862.339L-68.8598 862.297L-68.9349 862.222L-18.2822 811.569L-17.5751 810.862L-18.2822 810.155L-69.7749 758.662L-70.482 757.955L-71.1891 758.662L-172.996 860.469ZM-70.3165 862.339L-69.6096 863.046L-20.7288 911.927L-20.0217 912.634L-20.7288 913.341L-69.7195 962.332L-70.4267 963.039L-71.1338 962.332L-171.582 861.884L-172.289 861.177L-171.582 860.469L-71.1891 760.077L-70.482 759.37L-69.7749 760.077L-19.6964 810.155L-18.9893 810.862L-19.6964 811.569L-69.642 861.515L-70.3491 862.222L-70.2743 862.297L-70.3165 862.339ZM-52.347 981.118L-53.0541 981.826L-52.347 982.533L-0.284027 1034.6L0.423065 1035.3L1.13019 1034.6L51.5351 984.191L52.2422 983.484L51.5351 982.776L-0.527771 930.714L-1.23489 930.006L-1.94199 930.714L-52.347 981.118ZM-33.5247 1104L-34.2318 1104.7L-33.5247 1105.41L-2.479 1136.46L-1.77191 1137.16L-1.06479 1136.46L32.1758 1103.21L32.8829 1102.51L32.1758 1101.8L1.13013 1070.76L0.423004 1070.05L-0.284088 1070.76L-33.5247 1104ZM18.5028 1051.97L17.7957 1052.68L18.5028 1053.38L49.5484 1084.43L50.2555 1085.14L50.9626 1084.43L152.77 982.621L153.477 981.914L152.77 981.207L50.8742 879.312L50.1671 878.604L49.46 879.312L16.8448 911.927L16.1377 912.634L16.8448 913.341L86.3917 982.888L85.7633 983.516L86.3591 984.112L18.5028 1051.97ZM87.8059 982.888L87.0988 982.181L18.259 913.341L17.5519 912.634L18.259 911.927L49.46 880.726L50.1671 880.019L50.8742 880.726L151.355 981.207L152.062 981.914L151.355 982.621L50.9626 1083.01L50.2555 1083.72L49.5484 1083.01L19.917 1053.38L19.2099 1052.68L19.917 1051.97L87.0662 984.819L87.7733 984.112L87.1776 983.516L87.8059 982.888ZM49.46 843.152L50.1671 843.859L50.8742 843.152L152.199 741.827L152.907 741.12L152.199 740.413L50.3372 638.55L49.6301 637.843L48.923 638.55L16.8613 670.612L16.1542 671.319L16.8613 672.026L86.3917 741.557L86.3169 741.631L86.359 741.673L17.8772 810.155L17.1701 810.862L17.8772 811.569L49.46 843.152ZM87.8059 741.557L87.0988 740.849L18.2756 672.026L17.5685 671.319L18.2756 670.612L48.923 639.965L49.6301 639.258L50.3372 639.965L150.785 740.413L151.492 741.12L150.785 741.827L50.8742 841.738L50.1671 842.445L49.46 841.738L19.2914 811.569L18.5843 810.862L19.2914 810.155L87.0663 742.38L87.7733 741.673L87.7312 741.631L87.8059 741.557ZM0.504608 828.942L-0.202515 828.235L-0.909607 828.942L-33.5247 861.557L-34.2319 862.264L-33.5247 862.971L-1.94199 894.554L-1.23489 895.261L-0.527771 894.554L32.0874 861.939L32.7945 861.232L32.0874 860.525L0.504608 828.942ZM-0.909607 792.783L-0.202515 793.49L0.504608 792.783L50.9814 742.306L51.6885 741.599L50.9814 740.892L-0.511261 689.399L-1.21838 688.692L-1.92548 689.399L-52.4023 739.876L-53.1094 740.583L-52.4023 741.29L-0.909607 792.783ZM-71.1891 722.503L-70.482 723.21L-69.7749 722.503L-19.2981 672.026L-18.591 671.319L-19.2981 670.612L-68.9021 621.008L-68.8599 620.966L-68.9349 620.891L-18.8356 570.792L-18.1285 570.085L-18.8356 569.378L-70.3449 517.868L-71.052 517.161L-71.7591 517.868L-173.084 619.194L-173.792 619.901L-173.084 620.608L-71.1891 722.503ZM-70.3165 621.008L-69.6096 621.715L-20.7123 670.612L-20.0052 671.319L-20.7123 672.026L-69.7749 721.089L-70.482 721.796L-71.1891 721.089L-171.67 620.608L-172.377 619.901L-171.67 619.194L-71.7591 519.282L-71.052 518.575L-70.3449 519.282L-20.2498 569.378L-19.5428 570.085L-20.2498 570.792L-69.642 620.184L-70.3491 620.891L-70.2744 620.966L-70.3165 621.008ZM-33.5247 620.226L-34.2318 620.933L-33.5247 621.64L-1.92548 653.239L-1.21838 653.946L-0.511261 653.239L31.5504 621.178L32.2575 620.471L31.5504 619.764L-0.0488281 588.164L-0.755951 587.457L-1.46304 588.164L-33.5247 620.226ZM69.0191 519.161L69.7262 518.454L87.0988 501.082L87.8027 500.378L87.8059 500.375L87.7733 500.342L87.0988 499.668L68.9865 481.555L18.1844 430.753L17.4773 430.046L18.1844 429.339L48.353 399.17L49.0602 398.463L49.7673 399.17L150.248 499.651L150.955 500.359L150.248 501.066L50.3372 600.977L49.6301 601.684L48.923 600.977L18.738 570.792L18.0309 570.085L18.738 569.378L68.2794 519.836L68.9865 519.129L69.0191 519.161ZM69.0191 517.747L86.3916 500.375L68.2794 482.262L16.7702 430.753L16.0631 430.046L16.7702 429.339L48.353 397.756L49.0602 397.049L49.7673 397.756L151.663 499.651L152.37 500.359L151.663 501.066L50.3372 602.391L49.6301 603.098L48.923 602.391L17.3238 570.792L16.6167 570.085L17.3238 569.378L68.2794 518.422L68.9865 517.715L69.0191 517.747ZM-0.602417 448.126L-1.30954 447.419L-2.01663 448.126L-52.9723 499.081L-53.6794 499.789L-52.9723 500.496L-1.46304 552.005L-0.755951 552.712L-0.0488281 552.005L50.9068 501.049L51.614 500.342L50.9068 499.635L-0.602417 448.126ZM30.9805 380.384L31.6876 379.676L30.9805 378.969L-0.585754 347.403L-1.29288 346.696L-1.99997 347.403L-33.5829 378.986L-34.29 379.693L-33.5829 380.4L-2.01663 411.966L-1.30954 412.673L-0.602417 411.966L30.9805 380.384ZM-20.7868 328.616L-70.3283 279.075L-71.0355 278.368L-71.7426 279.075L-171.654 378.986L-172.361 379.693L-171.654 380.4L-71.7591 480.295L-71.052 481.002L-70.3449 480.295L-20.8034 430.753L-20.0963 430.046L-20.8034 429.339L-50.9554 399.187L-51.6626 398.48L-51.8345 398.652L-52.5416 397.945L-69.9142 380.572L-70.6213 379.865L-69.9142 379.158L-20.7868 330.031L-20.0797 329.323L-20.7868 328.616ZM-51.6626 397.066L-51.8345 397.238L-69.2071 379.865L-19.3726 330.031L-18.6655 329.323L-19.3726 328.616L-70.3283 277.661L-71.0355 276.953L-71.7426 277.661L-173.068 378.986L-173.775 379.693L-173.068 380.4L-71.7591 481.709L-71.052 482.416L-70.3449 481.709L-19.3892 430.753L-18.6821 430.046L-19.3892 429.339L-50.9554 397.773L-51.6626 397.066ZM0.423065 1033.89L1.13019 1033.18L50.1209 984.191L50.828 983.484L50.1209 982.776L-0.527771 932.128L-1.23489 931.421L-1.94199 932.128L-50.9327 981.118L-51.6399 981.826L-50.9327 982.533L-0.284027 1033.18L0.423065 1033.89ZM-32.8176 1104.7L-32.1105 1105.41L-2.479 1135.04L-1.77191 1135.75L-1.06479 1135.04L30.7616 1103.21L31.4687 1102.51L30.7616 1101.8L1.13013 1072.17L0.423004 1071.46L-0.284088 1072.17L-32.1105 1104L-32.8176 1104.7ZM-0.202515 829.649L-0.909607 830.356L-32.1105 861.557L-32.8177 862.264L-32.1105 862.971L-1.94199 893.14L-1.23489 893.847L-0.527771 893.14L30.6732 861.939L31.3803 861.232L30.6732 860.525L0.504608 830.356L-0.202515 829.649ZM50.2743 741.599L49.5672 740.892L-0.511261 690.813L-1.21838 690.106L-1.92548 690.813L-50.9881 739.876L-51.6952 740.583L-50.9881 741.29L-0.909607 791.368L-0.202515 792.075L0.504608 791.368L49.5672 742.306L50.2743 741.599ZM-32.8176 620.933L-32.1105 621.64L-1.92548 651.825L-1.21838 652.532L-0.511261 651.825L30.1362 621.178L30.8433 620.471L30.1362 619.764L-0.0488281 589.579L-0.755951 588.871L-1.46304 589.579L-32.1105 620.226L-32.8176 620.933ZM-1.30954 448.833L-2.01663 449.54L-51.5581 499.081L-52.2652 499.789L-51.5581 500.496L-1.46304 550.591L-0.755951 551.298L-0.0488281 550.591L49.4926 501.049L50.1997 500.342L49.4926 499.635L-0.602417 449.54L-1.30954 448.833ZM-1.29288 348.11L-1.99997 348.817L-32.1686 378.986L-32.8758 379.693L-32.1686 380.4L-2.01663 410.552L-1.30954 411.259L-0.602417 410.552L29.5662 380.384L30.2733 379.676L29.5662 378.969L-0.585754 348.817L-1.29288 348.11Z" fill="url(#paint0_linear_123_69)"/>
<defs>
<linearGradient id="paint0_linear_123_69" x1="-10.1739" y1="1360.52" x2="-10.1739" y2="0" gradientUnits="userSpaceOnUse">
<stop stop-color="#2C6A13" stop-opacity="0"/>
<stop offset="0.25" stop-color="#2C6A13" stop-opacity="0.21"/>
<stop offset="0.5" stop-color="#2C6A13" stop-opacity="0.5"/>
<stop offset="0.708333" stop-color="#2C6A13" stop-opacity="0.15"/>
<stop offset="0.921875" stop-color="#2C6A13" stop-opacity="0"/>
</linearGradient>
</defs>
</svg>
