<svg width="63" height="50" viewBox="0 0 63 50" fill="none" xmlns="http://www.w3.org/2000/svg">
<path d="M1 13.8L0.803237 13.3403C0.618579 13.4194 0.49915 13.6012 0.500005 13.8021C0.500859 14.003 0.621832 14.1838 0.807156 14.2613L1 13.8ZM62 13.8L62.2003 14.2581C62.3842 14.1777 62.5022 13.9952 62.5 13.7945C62.4978 13.5939 62.3759 13.414 62.1903 13.3376L62 13.8ZM15.3529 19.8L15.5725 19.3508L15.5593 19.3443L15.5458 19.3387L15.3529 19.8ZM30.9674 14.2957C31.2412 14.2595 31.4338 14.0083 31.3977 13.7345C31.3615 13.4608 31.1103 13.2681 30.8365 13.3043L30.9674 14.2957ZM48.5 29.5L49 29.5059L49 29.4971L48.5 29.5ZM32.9667 37.0011C32.6912 37.0195 32.4827 37.2577 32.5011 37.5333C32.5195 37.8088 32.7577 38.0173 33.0333 37.9989L32.9667 37.0011ZM26.4019 37.9903C26.6727 38.0444 26.9361 37.8688 26.9903 37.5981C27.0444 37.3273 26.8688 37.0639 26.5981 37.0097L26.4019 37.9903ZM18.3536 32.6464C18.1583 32.4511 17.8417 32.4511 17.6464 32.6464C17.4512 32.8417 17.4512 33.1583 17.6464 33.3535L18.3536 32.6464ZM48.4551 33.3009L47.9551 33.295L48.4551 33.3009ZM15.9805 35.5776L16.312 35.2033L15.9805 35.5776ZM31.75 27.0291L31.9504 27.4872L31.75 27.0291ZM30.0704 26.9935L29.8508 27.4427L30.0704 26.9935ZM30.1301 1.33041L29.9333 0.870755L30.1301 1.33041ZM31.6784 1.31958L31.4881 1.78194L31.6784 1.31958ZM1.19676 14.2596L30.3269 1.79007L29.9333 0.870755L0.803237 13.3403L1.19676 14.2596ZM31.4881 1.78194L61.8097 14.2624L62.1903 13.3376L31.8687 0.85721L31.4881 1.78194ZM61.7997 13.3419L31.5497 26.571L31.9504 27.4872L62.2003 14.2581L61.7997 13.3419ZM30.2899 26.5443L15.5725 19.3508L15.1334 20.2492L29.8508 27.4427L30.2899 26.5443ZM14.8529 19.8V34.1461H15.8529V19.8H14.8529ZM15.649 35.952C18.7492 38.6971 24.0515 41.9 30.902 41.9V40.9C24.3702 40.9 19.2939 37.8437 16.312 35.2033L15.649 35.952ZM30.902 41.9C35.7756 41.9 39.3416 40.883 42.0675 39.5208C44.7876 38.1616 46.6499 36.4676 48.1051 35.1672L47.4388 34.4215C45.9802 35.7249 44.2072 37.3337 41.6205 38.6263C39.0397 39.916 35.6276 40.9 30.902 40.9V41.9ZM0.807156 14.2613L7.98363 17.2613L8.36932 16.3387L1.19284 13.3387L0.807156 14.2613ZM7.98363 17.2613L15.1601 20.2613L15.5458 19.3387L8.36932 16.3387L7.98363 17.2613ZM30.8365 13.3043L8.11103 16.3043L8.24191 17.2957L30.9674 14.2957L30.8365 13.3043ZM8.67647 41.4V16.8H7.67647V41.4H8.67647ZM48.955 33.3068L49 29.5059L48 29.4941L47.9551 33.295L48.955 33.3068ZM49 29.4971L48.9444 19.7971L47.9445 19.8028L48 29.5029L49 29.4971ZM48.0961 29.2052C47.2942 30.304 45.3506 32.1375 42.6653 33.7595C39.9871 35.3773 36.6149 36.7579 32.9667 37.0011L33.0333 37.9989C36.8851 37.7421 40.4114 36.2893 43.1824 34.6155C45.9463 32.9459 48.0027 31.0294 48.9039 29.7948L48.0961 29.2052ZM26.5981 37.0097C25.8319 36.8565 24.2551 36.256 22.5986 35.4278C20.9432 34.6 19.2945 33.5874 18.3536 32.6464L17.6464 33.3535C18.7055 34.4125 20.4735 35.4832 22.1514 36.3222C23.8282 37.1606 25.5015 37.8102 26.4019 37.9903L26.5981 37.0097ZM48.1051 35.1672C48.6343 34.6943 48.9466 34.0214 48.955 33.3068L47.9551 33.295C47.95 33.724 47.7624 34.1323 47.4388 34.4215L48.1051 35.1672ZM14.8529 34.1461C14.8529 34.8239 15.1257 35.4886 15.649 35.952L16.312 35.2033C16.0186 34.9435 15.8529 34.5591 15.8529 34.1461H14.8529ZM31.5497 26.571C31.1462 26.7474 30.6856 26.7377 30.2899 26.5443L29.8508 27.4427C30.5102 27.765 31.2779 27.7813 31.9504 27.4872L31.5497 26.571ZM30.3269 1.79007C30.6971 1.63156 31.1156 1.62863 31.4881 1.78194L31.8687 0.85721C31.2479 0.601698 30.5505 0.60658 29.9333 0.870755L30.3269 1.79007Z" fill="black"/>
<path d="M6.09361 47.7582L8.17634 39.4L10.2591 47.7582C10.4163 48.3892 9.93899 49 9.28873 49H7.06394C6.41369 49 5.93639 48.3892 6.09361 47.7582Z" fill="#FCF4EA" stroke="black"/>
<ellipse cx="8.17634" cy="40.2" rx="2.39216" ry="2.4" fill="#FCF4EA" stroke="black"/>
</svg>
