<svg width="53" height="49" viewBox="0 0 53 49" fill="none" xmlns="http://www.w3.org/2000/svg">
<path d="M8 47.5C7.72386 47.5 7.5 47.7239 7.5 48C7.5 48.2761 7.72386 48.5 8 48.5V47.5ZM44 48.5C44.2761 48.5 44.5 48.2761 44.5 48C44.5 47.7239 44.2761 47.5 44 47.5V48.5ZM50.1811 18.1654L50.1358 17.6674L50.1811 18.1654ZM46.8176 24.4941L46.3971 24.7645L46.8176 24.4941ZM11 13.5H41.5V12.5H11V13.5ZM46.3971 24.7645L49.3088 29.2939L50.15 28.7532L47.2382 24.2237L46.3971 24.7645ZM50.5 33.3496V36H51.5V33.3496H50.5ZM42 44.5H10.5V45.5H42V44.5ZM2 36V33.3496H1V36H2ZM3.19116 29.2939L6.10295 24.7645L5.26177 24.2237L2.34998 28.7532L3.19116 29.2939ZM1.5 16.19V16H0.5V16.19H1.5ZM9 8.5H44V7.5H9V8.5ZM51.5 16V16.1736H52.5V16H51.5ZM6.5 23.4126V18.5H5.5V23.4126H6.5ZM6.5 18.5V18H5.5V18.5H6.5ZM2.75124 18.6776L5.95025 18.9975L6.04975 18.0025L2.85074 17.6826L2.75124 18.6776ZM46 18V18.5H47V18H46ZM46 18.5V23.4126H47V18.5H46ZM50.1358 17.6674L46.4547 18.0021L46.5453 18.9979L50.2263 18.6633L50.1358 17.6674ZM8 48.5H44V47.5H8V48.5ZM51.5 16.1736C51.5 16.9494 50.9084 17.5972 50.1358 17.6674L50.2263 18.6633C51.514 18.5462 52.5 17.4666 52.5 16.1736H51.5ZM44 8.5C48.1421 8.5 51.5 11.8579 51.5 16H52.5C52.5 11.3056 48.6944 7.5 44 7.5V8.5ZM1.5 16C1.5 11.8579 4.85786 8.5 9 8.5V7.5C4.30558 7.5 0.5 11.3056 0.5 16H1.5ZM0.5 16.19C0.5 17.4744 1.47324 18.5498 2.75124 18.6776L2.85074 17.6826C2.08394 17.6059 1.5 16.9607 1.5 16.19H0.5ZM2 33.3496C2 31.9115 2.41348 30.5037 3.19116 29.2939L2.34998 28.7532C1.46861 30.1242 1 31.7197 1 33.3496H2ZM10.5 44.5C5.80558 44.5 2 40.6944 2 36H1C1 41.2467 5.2533 45.5 10.5 45.5V44.5ZM50.5 36C50.5 40.6944 46.6944 44.5 42 44.5V45.5C47.2467 45.5 51.5 41.2467 51.5 36H50.5ZM49.3088 29.2939C50.0865 30.5037 50.5 31.9115 50.5 33.3496H51.5C51.5 31.7197 51.0314 30.1242 50.15 28.7532L49.3088 29.2939ZM47.2382 24.2237C47.0827 23.9818 47 23.7002 47 23.4126H46C46 23.892 46.1378 24.3612 46.3971 24.7645L47.2382 24.2237ZM41.5 13.5C43.9853 13.5 46 15.5147 46 18H47C47 14.9624 44.5376 12.5 41.5 12.5V13.5ZM11 12.5C7.96243 12.5 5.5 14.9624 5.5 18H6.5C6.5 15.5147 8.51472 13.5 11 13.5V12.5ZM6.10295 24.7645C6.36217 24.3612 6.5 23.892 6.5 23.4126H5.5C5.5 23.7002 5.4173 23.9818 5.26177 24.2237L6.10295 24.7645Z" fill="black"/>
<circle cx="26" cy="4" r="3.5" stroke="black"/>
<path d="M22.8103 34.054C22.661 34.054 22.535 34.012 22.4323 33.928C22.339 33.844 22.2923 33.7367 22.2923 33.606C22.2923 33.4753 22.339 33.368 22.4323 33.284C22.535 33.2 22.661 33.158 22.8103 33.158H27.1083C27.2577 33.158 27.379 33.2 27.4723 33.284C27.575 33.368 27.6263 33.4753 27.6263 33.606C27.6263 33.7367 27.575 33.844 27.4723 33.928C27.379 34.012 27.2577 34.054 27.1083 34.054H22.8103ZM22.8103 32.136C22.661 32.136 22.535 32.0893 22.4323 31.996C22.339 31.8933 22.2923 31.7673 22.2923 31.618C22.2923 31.4593 22.339 31.3333 22.4323 31.24C22.535 31.1373 22.661 31.086 22.8103 31.086H25.4283V32.136H22.8103ZM24.2103 36C24.0517 36 23.921 35.9487 23.8183 35.846C23.7157 35.7433 23.6643 35.6127 23.6643 35.454V25.612C23.6643 25.4533 23.7157 25.3227 23.8183 25.22C23.921 25.1173 24.0517 25.066 24.2103 25.066H27.0103C27.701 25.066 28.3123 25.22 28.8443 25.528C29.3763 25.8267 29.7917 26.242 30.0903 26.774C30.3983 27.306 30.5523 27.922 30.5523 28.622C30.5523 29.3033 30.3983 29.91 30.0903 30.442C29.7917 30.9647 29.3763 31.38 28.8443 31.688C28.3123 31.9867 27.701 32.136 27.0103 32.136H24.7563V35.454C24.7563 35.6127 24.705 35.7433 24.6023 35.846C24.4997 35.9487 24.369 36 24.2103 36ZM24.7563 31.086H27.0103C27.4957 31.086 27.9203 30.9833 28.2843 30.778C28.6577 30.5633 28.947 30.2693 29.1523 29.896C29.367 29.5227 29.4743 29.098 29.4743 28.622C29.4743 28.1273 29.367 27.6933 29.1523 27.32C28.947 26.9467 28.6577 26.6527 28.2843 26.438C27.9203 26.2233 27.4957 26.116 27.0103 26.116H24.7563V31.086Z" fill="black"/>
</svg>
